<svg xmlns="http://www.w3.org/2000/svg" baseProfile="tiny-ps" width="110" height="30" xmlns:v="https://vecta.io/nano"><path fill-rule="evenodd" d="M79.65 11.03v.02h0v-.02zm0 .02h2.74v2.78h1.07L86.67 11h4.02l-4.55 4.07L91 19.02h-4.09l-3.46-2.86h-.96v2.88h-2.84v-7.99zm-53.3 0l4.33 7.99h-3.05l-.74-1.36h-5l-.74 1.33H18l4.4-7.96h3.95zm-.64 4.6l-1.34-2.35-1.34 2.35h2.68zm5.36-4.6h2.74v2.78h1.09L38.1 11h4.03l-4.58 4.07 4.87 3.97h-4.09l-3.46-2.88h-.95v2.88h-2.85v-7.99zm16.83-.02h3.24a2.19 2.19 0 0 1 .56.14 2.29 2.29 0 0 1 .5.3 1.95 1.95 0 0 1 .39.42c.11.16.2.33.26.51.25.8.07 2.1-.62 2.58.49.2.83.98.87 1.77v.32.1c-.01.04-.01.07-.02.1 0 .04-.01.07-.01.11-.01.03-.02.06-.02.1-.16.88-.86 1.56-1.43 1.56h-8.66v-8l4.94-.01zm2.02 5.78c.06 0 .12-.01.17-.03s.1-.06.14-.09c.04-.04.07-.09.1-.14a.47.47 0 0 0 .04-.17c0-.06-.01-.11-.04-.17a.42.42 0 0 0-.09-.14.46.46 0 0 0-.15-.09c-.05-.02-.11-.03-.17-.03h-4.37v.86h4.37zm-.11-2.88c.11 0 .22-.04.3-.12s.13-.19.13-.3a.44.44 0 0 0-.13-.31c-.08-.08-.19-.12-.3-.12h-4.26v.85h4.26zm16.78-2.88h4.42l4.15 5.57v-5.57h2.85v7.99h-4.47l-4.07-5.4v5.37h-2.88v-7.96zm-4.77 0l4.33 7.99h-3.04l-.75-1.36h-5l-.74 1.33h-3.15l4.4-7.96h3.95zm-.63 4.6l-1.35-2.35-1.34 2.35h2.69z" fill="#ec1c24"/></svg>