<svg xmlns="http://www.w3.org/2000/svg" baseProfile="tiny-ps" width="110" height="30" fill-rule="evenodd" xmlns:v="https://vecta.io/nano"><path d="M71.19 10.47c.01-1.38.64-2.68 1.73-3.53a4.5 4.5 0 0 1 3.85-.8c1.34.33 2.45 1.27 3 2.53.56 1.27.5 2.72-.15 3.93l-3.95 6.57-.97-1.62 2.44-6.45a1.59 1.59 0 0 0-1.18-2.12c-.45-.09-.93.02-1.29.31a1.57 1.57 0 0 0-.61 1.18v6.06l-2.33-3.93c-.09-.16-.16-.33-.23-.5l-.16-.53-.1-.54c-.02-.19-.03-.37-.02-.56" fill="#ea8640"/><path d="M86 20.28c0 1.38-.64 2.68-1.73 3.53a4.47 4.47 0 0 1-3.85.81c-1.33-.34-2.44-1.27-3-2.54-.56-1.26-.5-2.71.16-3.93l3.94-6.57.97 1.61-2.43 6.44-.06.16c-.02.05-.03.1-.04.15-.01.06-.02.11-.02.16-.01.06-.01.11-.01.17 0 .42.17.82.46 1.12.3.3.71.47 1.13.47s.83-.17 1.13-.47.46-.7.46-1.12v-6.06l2.35 3.93c.09.16.16.33.23.5l.16.53.1.54c.02.19.03.37.02.56" fill="#ec1c24"/><path d="M25.4 17.69l.58-.07.57-.04.58-.01.58.03c1.18.12 2.24.62 2.24 2.71v3.63c0 .06 0 .12.01.18s.01.12.03.18c.01.06.02.12.04.18l.06.17h-1.5l-.28-.57c-1.55 1.4-4.31.83-4.31-1.44 0-2.28 2.64-2.36 3.4-2.36h.76v-.23c0-.68-.47-1.13-1.47-1.15l-.33.01c-.11 0-.21.01-.32.02l-.32.05c-.11.02-.21.05-.32.08v-1.37zm2.76 3.81h-1.11c-.67 0-1.34.26-1.28 1.1.06.85 1.54 1.2 2.39.37V21.5zm4.42-6.48v7.08c-.02.18.01.36.07.52a1.23 1.23 0 0 0 .28.43 1.29 1.29 0 0 0 .45.27c.17.05.35.06.52.04v1.33c-2.01.11-3.11-.79-3.11-2.39v-7.28h1.79zm11.36 2.67l.57-.07.58-.04.58-.01.58.03c1.18.12 2.24.62 2.24 2.71v3.63c0 .06 0 .12.01.18s.01.12.03.18c.01.06.02.12.04.18l.06.17h-1.51l-.29-.57c-1.54 1.4-4.31.83-4.31-1.44 0-2.28 2.64-2.36 3.4-2.36h.76v-.23c0-.68-.46-1.13-1.47-1.15l-.32.01c-.11 0-.22.01-.33.02l-.32.05c-.11.02-.21.05-.32.08l.02-1.37zm2.76 3.81h-1.12c-.66 0-1.33.26-1.27 1.1.06.85 1.54 1.2 2.39.37V21.5zm2.71 3.15v-4.72c0-1.6 1.26-2.71 3.64-2.23v1.36c-1.31-.43-1.82.26-1.82 1.07v4.52h-1.82zm4.6-6.96l.57-.07.58-.04.57-.01.58.03c1.18.12 2.24.62 2.24 2.71v3.63c0 .06.01.12.01.18l.03.18c.01.06.03.12.04.18l.06.17H57.2l-.29-.57c-1.54 1.4-4.31.83-4.31-1.44 0-2.28 2.64-2.36 3.4-2.36h.76v-.23c0-.68-.46-1.13-1.46-1.15l-.33.01c-.11 0-.22.01-.33.02l-.32.05a3.53 3.53 0 0 0-.31.08v-1.37zm2.75 3.81h-1.11c-.67 0-1.34.26-1.27 1.1.06.85 1.54 1.2 2.38.37V21.5zm-18.19-6.45c1.38 0 2.81.73 2.81 2.35.01.21 0 .43-.05.63-.05.21-.12.4-.23.59-.1.18-.24.34-.39.49a2.26 2.26 0 0 1-.52.35c2.96.81 2.29 5.25-1.46 5.25h-3.22v-9.68l3.06.02zm-1.27 4.02h1.08c.17 0 .33-.04.48-.1.15-.07.29-.16.4-.28a1.09 1.09 0 0 0 .27-.4 1.15 1.15 0 0 0 .1-.48c.01-.17-.02-.33-.08-.49s-.15-.3-.27-.42c-.11-.12-.25-.21-.41-.28-.15-.06-.32-.1-.49-.09H37.3v2.54zm0 4.14h1.35c.19.02.38 0 .56-.06.19-.05.36-.15.51-.27.14-.12.27-.27.36-.44.08-.17.14-.36.16-.55-.01-.19-.05-.37-.13-.54-.08-.18-.19-.33-.33-.46-.14-.12-.3-.22-.48-.28s-.37-.09-.56-.07H37.3v2.67zm30.28-5.52l.57-.07.58-.04.58-.01.58.03c1.18.12 2.24.62 2.24 2.71v3.63c0 .06.01.12.02.18 0 .06.01.12.03.18a1.21 1.21 0 0 0 .05.18c.01.06.04.12.06.17h-1.52l-.28-.57c-1.54 1.4-4.31.83-4.31-1.44 0-2.28 2.64-2.36 3.4-2.36h.76v-.23c0-.68-.47-1.13-1.47-1.15l-.33.01c-.11 0-.21.01-.32.02l-.32.05a2.99 2.99 0 0 0-.32.08v-1.37zm2.76 3.81h-1.12c-.66 0-1.33.26-1.27 1.1.06.85 1.54 1.2 2.39.37V21.5zm-6.39-3.95H66l-2.44 2.62 2.72 4.48H64.3l-1.93-3.24-1.12 1.19v2.05h-1.64v-9.68h1.64v5.5l2.7-2.92z" fill="#929497"/></svg>