<svg xmlns="http://www.w3.org/2000/svg" baseProfile="tiny-ps" width="110" height="30" xmlns:v="https://vecta.io/nano"><defs><linearGradient id="A" gradientUnits="userSpaceOnUse" x1="19.014" y1="15.482" x2="43.986" y2="15.482"><stop offset="0" stop-color="#419a45"/><stop offset=".16" stop-color="#419a45"/><stop offset=".26" stop-color="#4ca245"/><stop offset=".53" stop-color="#63b344"/><stop offset=".78" stop-color="#70bd44"/><stop offset="1" stop-color="#75c044"/></linearGradient></defs><path d="M31.5 27.97c-.08 0-.15 0-.22-.01-.08-.01-.15-.03-.22-.05l-.21-.07c-.07-.03-.13-.07-.2-.1l-8.33-5c-.1-.06-.2-.14-.29-.22-.08-.09-.16-.18-.23-.29a1.37 1.37 0 0 1-.16-.32c-.05-.12-.08-.24-.1-.36L19.01 4.91c-.01-.11-.01-.23 0-.35s.03-.24.06-.36c.04-.11.08-.22.14-.33a1.94 1.94 0 0 1 .21-.29c.08-.09.17-.17.26-.24a1.5 1.5 0 0 1 .32-.19c.11-.05.22-.09.34-.11.12-.03.24-.04.36-.04h21.62c.12 0 .24.02.36.04a2.3 2.3 0 0 1 .34.12c.1.05.21.11.3.18.1.07.18.15.26.24a1.21 1.21 0 0 1 .2.3c.06.1.11.21.14.33.03.11.05.23.06.35s.01.24-.01.35l-2.5 16.64a2.37 2.37 0 0 1-.09.36c-.05.11-.1.22-.17.32s-.15.2-.24.28c-.09.09-.18.16-.29.22l-8.32 5c-.07.04-.13.07-.2.1s-.14.06-.22.08c-.07.02-.14.04-.22.05-.07.01-.15.01-.22.01z" fill="url(#A)"/><path d="M31.5 20.99c-2.24 0-4.33-1.12-5.57-2.98s-1.47-4.22-.61-6.28c.86-2.07 2.68-3.57 4.88-4a6.69 6.69 0 0 1 6.04 1.82l-1.78 1.78c-1.2-1.22-3.02-1.6-4.61-.95a4.21 4.21 0 0 0-2.62 3.9c0 1.72 1.03 3.26 2.62 3.91s3.41.27 4.61-.95l1.78 1.78c-.31.32-.65.6-1.02.84-.36.25-.75.45-1.16.62-.4.17-.82.3-1.26.38a6.3 6.3 0 0 1-1.3.13h0z" fill="#fff"/><g fill="#010101"><path d="M51.29 11.3a2.28 2.28 0 0 1 .52.04 2.39 2.39 0 0 1 .51.13 3.33 3.33 0 0 1 .46.24 2.59 2.59 0 0 1 .42.32c.01.02.02.03.03.05s.01.04.01.06 0 .04-.01.06-.02.04-.03.05l-.62.63c-.01.02-.03.03-.04.04-.02.01-.04.01-.06.01s-.03 0-.05-.01-.03-.02-.04-.04c-.08-.06-.16-.11-.24-.16s-.17-.09-.26-.13c-.09-.03-.18-.06-.28-.07-.09-.02-.19-.03-.29-.03-.42 0-.83.17-1.14.47a1.61 1.61 0 0 0 0 2.28c.31.3.72.47 1.14.47a1.43 1.43 0 0 0 .29-.03c.09-.01.18-.04.27-.07s.18-.07.26-.12c.09-.05.16-.1.24-.16.01-.01.03-.02.04-.03.02-.01.04-.01.06-.01s.04 0 .05.01c.02.01.04.02.05.03l.62.65c.01.01.02.03.03.05 0 .02.01.04.01.05 0 .02-.01.04-.01.06-.01.02-.02.04-.03.05a3.39 3.39 0 0 1-.42.33c-.14.1-.3.18-.47.24-.16.07-.33.12-.5.15a3.17 3.17 0 0 1-.53.05 2.83 2.83 0 0 1-2-.83c-.53-.53-.83-1.25-.83-2.01a2.83 2.83 0 0 1 2.83-2.83l.01.01zm3.64.23c0-.02.01-.04.02-.06 0-.02.02-.03.03-.05.01-.01.03-.02.05-.03s.04-.01.05-.02h3.27c.02.01.04.01.05.02.02.01.04.02.05.03.01.02.02.03.03.05s.01.04.01.06v.84c0 .02 0 .04-.01.05-.01.02-.02.04-.03.05s-.03.02-.05.03c-.01.01-.03.01-.05.01h-2.19v.98h1.8c.02 0 .04.01.06.02.02 0 .03.01.05.03.01.01.02.03.03.05.01.01.01.03.01.05v.85c0 .02 0 .03-.01.05s-.02.04-.03.05c-.02.01-.04.02-.05.03-.02.01-.04.01-.06.01h-1.8v1.1h2.19c.02 0 .04.01.05.02.02 0 .04.01.05.03.01.01.02.03.03.04.01.02.01.04.01.06v.84c0 .02 0 .04-.01.06s-.02.03-.03.05c-.01.01-.03.02-.05.03-.01.01-.03.01-.05.01h-3.27c-.01 0-.03 0-.05-.01s-.04-.02-.05-.03c-.01-.02-.03-.03-.03-.05-.01-.02-.02-.04-.02-.06v-5.19z"/><path fill-rule="evenodd" d="M60.34 11.53c0-.02 0-.04.01-.06s.02-.04.03-.05c.02-.02.03-.03.05-.03.02-.01.04-.02.06-.02h1.9c.46 0 .91.19 1.24.52a1.74 1.74 0 0 1 .51 1.24c0 .46-.18.91-.51 1.24s-.78.51-1.24.51h-.84v1.86c0 .02-.01.04-.02.05 0 .02-.01.04-.03.05-.01.02-.03.03-.04.04-.02 0-.04.01-.06.01h-.93c-.02 0-.04 0-.05-.01-.02-.01-.04-.02-.05-.03-.02-.02-.03-.04-.04-.05 0-.02-.01-.04-.01-.06l.02-5.21zm1.97 2.21c.08 0 .17-.02.24-.05.08-.03.15-.08.2-.14.06-.05.11-.12.14-.2.03-.07.05-.16.05-.24-.01-.08-.03-.15-.06-.23-.03-.07-.08-.13-.14-.19a.56.56 0 0 0-.2-.12c-.07-.03-.15-.04-.23-.04h-.75v1.21h.75z"/><path d="M66.47 12.53h-1.12c-.02 0-.04 0-.06-.01s-.03-.02-.05-.03c-.01-.01-.02-.03-.03-.05-.01-.01-.01-.03-.01-.05v-.85c0-.02 0-.04.01-.05.01-.02.02-.04.03-.05.02-.02.03-.03.05-.04.02 0 .04-.01.06-.01h3.49c.02 0 .04.01.06.02.01 0 .03.01.05.03.01.01.02.03.03.05.01.01.01.03.01.05v.85c0 .02 0 .03-.01.05s-.02.04-.04.05c-.01.01-.03.02-.04.03-.02.01-.04.01-.06.01h-1.12v4.22c0 .02-.01.04-.02.05 0 .02-.01.04-.03.05-.01.02-.03.03-.05.03-.01.01-.03.02-.05.02h-.95c-.02 0-.04-.01-.05-.02-.02 0-.04-.01-.05-.03-.02-.01-.03-.03-.04-.05 0-.01-.01-.03-.01-.05v-4.22zm4.1-1c0-.02 0-.04.01-.06s.02-.03.03-.05c.01-.01.03-.02.05-.03.01-.01.03-.01.05-.02h3.27c.02.01.04.01.05.02.02.01.04.02.05.03.02.02.03.03.03.05.01.02.02.04.02.06v.84c0 .02-.01.04-.02.06 0 .01-.02.03-.03.04s-.03.03-.05.03c-.02.01-.03.01-.05.01h-2.19v.98h1.8c.02 0 .04.01.06.02.01 0 .03.01.04.03.02.01.03.03.04.05 0 .01.01.03.01.05v.85c0 .02 0 .04-.01.05-.01.02-.02.04-.03.05-.02.01-.04.02-.05.03-.02.01-.04.01-.06.01h-1.8v1.1h2.19c.02 0 .03.01.05.02.02 0 .04.01.05.03.01.01.03.03.03.04.01.02.02.04.02.06v.84c0 .02-.01.04-.02.06 0 .02-.01.03-.03.05-.01.01-.03.02-.05.03-.01.01-.03.01-.05.01h-3.27c-.02 0-.04 0-.05-.01-.02-.01-.04-.02-.05-.03-.01-.02-.02-.03-.03-.05s-.01-.04-.01-.06v-5.19zm6.1 1h-1.15c-.02 0-.04 0-.06-.01s-.03-.02-.05-.03c-.01-.01-.02-.03-.03-.05-.01-.01-.01-.03-.01-.05v-.85-.06c.01-.02.02-.04.04-.06.01-.01.03-.02.05-.03s.04-.02.06-.02h3.49c.02 0 .04.01.06.02.02 0 .03.01.05.03.01.01.02.03.03.05s.01.04.01.06v.84c0 .02 0 .04-.01.06-.01.01-.02.03-.03.04-.02.02-.03.03-.05.03-.02.01-.04.01-.06.01h-1.09v4.22c0 .02 0 .04-.01.06-.01.01-.02.03-.03.05-.02.01-.03.02-.05.03s-.04.01-.06.01h-.94c-.02 0-.04 0-.06-.01s-.03-.02-.05-.03c-.01-.02-.02-.04-.03-.05-.01-.02-.01-.04-.02-.06v-4.2zm4.1-1c0-.02.01-.04.01-.06.01-.02.02-.03.04-.05.01-.01.02-.02.04-.03s.04-.01.06-.02h3.26c.02.01.04.01.06.02s.03.02.05.03c.01.02.02.03.03.05s.01.04.01.06v.84c0 .02 0 .04-.01.06-.01.01-.02.03-.03.04-.02.01-.04.03-.05.03-.02.01-.04.01-.06.01H82v.98h1.79c.02 0 .04.01.06.02.02 0 .03.01.05.03.01.01.02.03.03.05.01.01.01.03.01.05v.85c0 .02 0 .03-.01.05s-.02.04-.03.05c-.02.01-.03.02-.05.03s-.04.01-.06.01H82v1.1h2.18c.02 0 .04.01.06.02.01 0 .03.01.05.03.01.01.02.03.03.04.01.02.01.04.01.06v.84c0 .02 0 .04-.01.06s-.02.03-.03.05c-.02.01-.03.02-.05.03s-.04.01-.06.01h-3.26c-.02 0-.04 0-.06-.01s-.03-.02-.04-.03c-.02-.02-.03-.03-.04-.05 0-.02-.01-.04-.01-.06v-5.19z"/><path fill-rule="evenodd" d="M86.17 11.53c0-.02.01-.04.01-.06.01-.02.02-.03.04-.05.01-.01.03-.02.05-.03.01-.01.03-.01.05-.02h1.85c.21-.01.41.02.61.08a1.62 1.62 0 0 1 .54.31c.15.14.28.3.37.49a1.54 1.54 0 0 1 .17.59c-.02.14-.05.27-.1.39a1.48 1.48 0 0 1-.19.35c-.08.11-.18.21-.28.29a1.36 1.36 0 0 1-.34.21c.14.05.27.11.39.19s.23.18.32.29c.1.12.17.24.23.38.06.13.09.28.11.42a1.61 1.61 0 0 1-.15.61 1.7 1.7 0 0 1-.38.51 1.55 1.55 0 0 1-.54.32 1.61 1.61 0 0 1-.62.09h-1.99c-.02 0-.04-.01-.05-.01-.02-.01-.04-.02-.05-.04-.02-.01-.03-.03-.04-.04 0-.02-.01-.04-.01-.06v-5.21zm1.85 2.08c.07 0 .14-.02.21-.05s.13-.07.18-.12.09-.12.11-.18c.03-.07.05-.14.05-.22 0-.07-.02-.14-.05-.2a.36.36 0 0 0-.12-.18.45.45 0 0 0-.17-.11c-.07-.03-.14-.04-.21-.04h-.62v1.1h.62zm.1 2.15c.07 0 .15-.02.22-.05.06-.03.13-.07.18-.12s.09-.12.12-.19c.03-.06.04-.14.04-.21a.52.52 0 0 0-.07-.22.86.86 0 0 0-.14-.18.72.72 0 0 0-.21-.12c-.07-.02-.15-.03-.23-.03h-.63v1.12h.72z"/></g></svg>