<svg xmlns="http://www.w3.org/2000/svg" xmlns:xlink="http://www.w3.org/1999/xlink" baseProfile="tiny-ps" width="110" height="30" xmlns:v="https://vecta.io/nano"><defs><linearGradient id="A" x1="18.625" y1="12.014" x2="16.191" y2="8.896" xlink:href="#I"><stop offset=".13" stop-color="#73ab2b"/><stop offset=".71" stop-color="#007f43"/></linearGradient><linearGradient id="B" x1="130.521" y1="163.388" x2="29.414" y2="79.813" xlink:href="#I"><stop offset=".13" stop-color="#73ab2b"/><stop offset=".71" stop-color="#007f43"/></linearGradient><linearGradient id="C" x1="130.819" y1="215.633" x2="22.621" y2="292.82" xlink:href="#I"><stop offset=".13" stop-color="#73ab2b"/><stop offset=".71" stop-color="#007f43"/></linearGradient><linearGradient id="D" x1="113.322" y1="339.017" x2="73.171" y2="437.343" xlink:href="#I"><stop offset=".13" stop-color="#73ab2b"/><stop offset=".71" stop-color="#007f43"/></linearGradient><linearGradient id="E" x1="93.748" y1="131.92" x2="107.451" y2="65.527" xlink:href="#I"><stop offset=".13" stop-color="#73ab2b"/><stop offset=".71" stop-color="#007f43"/></linearGradient><linearGradient id="F" x1="108.592" y1="95.33" x2="145.208" y2="95.33" xlink:href="#I"><stop offset=".13" stop-color="#73ab2b"/><stop offset=".71" stop-color="#007f43"/></linearGradient><linearGradient id="G" x1="20.404" y1="15.288" x2="22.823" y2="18.816" xlink:href="#I"><stop offset=".05" stop-color="#73ab2b"/><stop offset=".76" stop-color="#007f43"/></linearGradient><linearGradient id="H" x1="19.893" y1="16.539" x2="20.984" y2="19.969" xlink:href="#I"><stop offset="0" stop-color="#73ab2b"/><stop offset=".71" stop-color="#007f43"/></linearGradient><linearGradient id="I" gradientUnits="userSpaceOnUse"/></defs><g fill="#004481"><path fill-rule="evenodd" d="M81.21 17.18c0 1.71-1.08 2.56-3.1 2.56h-4.06c-.02 0-.04 0-.05-.01-.02 0-.04-.02-.05-.03-.02-.01-.03-.03-.04-.05s-.01-.04-.01-.06v-8.27c0-.02 0-.04.01-.06s.02-.04.04-.05c.01-.01.03-.03.05-.03.01-.01.03-.02.05-.02h4.24c1.49 0 2.52.9 2.52 2.24 0 .79-.35 1.43-.94 1.74h.07c.79.3 1.27 1.05 1.27 2.04zm-5.79-4.78c-.02.01-.04.02-.06.04-.01.01-.03.03-.04.05s-.01.04-.01.06v1.93c0 .02 0 .04.01.06s.03.03.04.05l.06.03c.02.01.04.01.06.01H78c.93 0 1.39-.5 1.39-1.25s-.49-.99-1.39-.99h-2.52c-.02 0-.04.01-.06.01zm4.36 4.8c0-.97-.5-1.3-1.73-1.32h-2.57c-.02 0-.04.01-.06.02s-.04.02-.06.04c-.01.02-.03.03-.04.05s-.01.05-.01.07v2.28c0 .02 0 .04.01.06s.03.04.04.05c.02.01.04.03.06.03.02.01.04.01.06.01h2.55c1.23 0 1.75-.33 1.75-1.29z"/><path d="M88.89 11.23l-2.83 5.38c-.01.03-.03.05-.06.07-.02.01-.05.02-.08.02a.2.2 0 0 1-.09-.02c-.03-.02-.05-.04-.06-.07l-2.83-5.38c-.01-.01-.02-.03-.03-.04s-.02-.02-.03-.02c-.02-.01-.03-.02-.05-.02-.01-.01-.03-.01-.04-.01h-1.36c-.02 0-.05 0-.07.01s-.04.02-.05.04-.02.04-.02.07c.01.02.01.04.03.06l4.45 8.34c.01.03.03.05.06.07a.2.2 0 0 0 .09.02c.03 0 .06-.01.08-.02.03-.02.05-.04.06-.07l4.45-8.34c.02-.02.02-.04.03-.06 0-.03-.01-.05-.02-.07s-.03-.03-.05-.04-.05-.01-.07-.01h-1.36c-.01 0-.03 0-.04.01-.02 0-.03 0-.05.01-.01.01-.02.02-.04.03-.01.01-.01.03-.02.04z"/><path fill-rule="evenodd" d="M72.3 17.18c0 1.71-1.08 2.56-3.1 2.56h-4.05c-.02 0-.04 0-.06-.01-.02 0-.04-.02-.05-.03-.02-.01-.03-.03-.04-.05 0-.02-.01-.04-.01-.06v-8.27c0-.02.01-.04.01-.06.01-.02.02-.04.04-.05.01-.01.03-.03.05-.03.02-.01.04-.02.06-.02h4.23c1.49 0 2.52.9 2.52 2.24 0 .79-.35 1.43-.94 1.74h.07c.79.3 1.27 1.05 1.27 2.04zm-5.73-4.79c-.02 0-.04.01-.06.02-.02 0-.03.01-.05.03-.01.01-.02.03-.03.05s-.01.04-.01.06v1.93c0 .02 0 .04.01.06s.02.03.03.05c.02.01.03.02.05.03s.04.01.06.01h2.53c.92 0 1.4-.5 1.4-1.25s-.51-.99-1.4-.99h-2.53zm4.3 4.81c0-.97-.5-1.3-1.73-1.32h-2.57c-.02 0-.04.01-.06.02s-.04.02-.06.04c-.01.02-.03.03-.04.05s-.01.05-.01.07v2.28c0 .02.01.04.02.06s.02.04.03.05c.02.01.04.03.06.03.02.01.04.01.06.01h2.55c1.23 0 1.75-.33 1.75-1.29z"/><path d="M90.31 18.41l2.84-5.38c.01-.03.03-.05.05-.07.03-.02.06-.03.09-.03s.06.01.08.03c.03.02.05.04.06.07l2.83 5.38c.01.01.02.02.03.04.01.01.02.02.03.02.02.01.03.02.05.02.01 0 .03.01.05 0h1.36c.02.01.04.01.06 0a.12.12 0 0 0 .05-.05c.01-.01.02-.04.02-.06s-.01-.04-.02-.06l-4.46-8.34c-.01-.03-.04-.05-.06-.07-.03-.01-.06-.02-.09-.02s-.06.01-.09.02c-.03.02-.05.04-.07.07l-4.45 8.34c-.02.02-.02.04-.02.06-.01.02 0 .05.01.06a.12.12 0 0 0 .05.05c.02.01.05.01.07 0h1.38.05c.01-.01.03-.01.04-.02s.03-.02.04-.03.02-.02.02-.03h0z"/></g><g fill="#121212"><path d="M61.31 11.98c0-.06 0-.11-.01-.17-.01-.05-.03-.11-.05-.16s-.04-.1-.08-.14a.45.45 0 0 0-.11-.13c-.03-.04-.07-.07-.11-.1l-.14-.08c-.05-.02-.1-.04-.16-.05-.05-.01-.1-.01-.16-.01-.05 0-.11.01-.16.02s-.11.02-.16.04a.64.64 0 0 0-.14.08c-.05.03-.09.07-.13.1-.02.03-.05.05-.07.08l-.06.09c-.02.03-.04.06-.05.09a.3.3 0 0 0-.04.1c0 .01-.01.03-.01.05s-.01.05-.01.07v.06.06c0 .05 0 .1.02.15a.75.75 0 0 0 .04.16c.02.05.05.09.08.14a1.06 1.06 0 0 0 .1.12l.12.11c.05.03.1.06.15.08a.75.75 0 0 0 .16.04.86.86 0 0 0 .16.01c.06 0 .11 0 .16-.01a.75.75 0 0 0 .16-.05c.04-.02.09-.05.14-.08.04-.03.08-.06.11-.1l.11-.12c.03-.05.06-.09.08-.14s.03-.1.04-.15c.01-.06.02-.11.02-.16h0zm.06 7.79c-.09-.2-.11-.84-.11-1.61v-3.42c0-.72.07-1.36-.61-1.36l-.3.06-.29.09-.29.12-.26.15c.26.17.35.52.35 1.27v3.09c0 .9 0 1.39-.11 1.61h1.62zm-3.95.13c-.66 0-1.12-.2-1.4-.59-.29-.4-.31-.77-.31-1.47v-3.47h-.97v-.77l.97-.11.11-1.51 1.29-.11v1.62h1.58v.88h-1.58v3.51c0 .68.27 1.01.82 1.01.09 0 .18-.01.27-.02a1.38 1.38 0 0 0 .26-.06 1.34 1.34 0 0 0 .26-.09c.08-.03.16-.07.24-.12l.13.84-.39.19-.42.14a3.15 3.15 0 0 1-.42.09l-.44.04z"/><path fill-rule="evenodd" d="M36.68 19.77l-.11-.62c-.11.12-.24.23-.38.33a3.09 3.09 0 0 1-.44.24 1.92 1.92 0 0 1-.48.15c-.16.03-.33.05-.49.05-1.06-.02-1.89-.64-1.91-1.76-.05-2.01 2.04-2.63 3.68-2.15 0-.9.07-1.82-1.14-1.82a4.03 4.03 0 0 0-.49.03 4.13 4.13 0 0 0-.49.07l-.47.13-.46.19.18-.88.43-.17c.15-.05.29-.09.45-.12.15-.04.3-.06.45-.08.16-.02.31-.02.47-.02 1.69 0 2.48.55 2.48 2.3v2.68c-.01.12-.01.24 0 .36l.01.37.04.36.06.36h-1.39zm-.13-3.08c-1.34-.35-2.26.64-2.26 1.3s.4.92 1.03.92a1.87 1.87 0 0 0 .34-.03c.11-.02.21-.05.32-.09a2.1 2.1 0 0 0 .3-.15 1.31 1.31 0 0 0 .27-.19v-1.76z"/><path d="M52.48 19.77l.05-.19.02-.19c.01-.07.01-.13.01-.2 0-.06 0-.13-.01-.19v-3.4c0-.84-.26-1.23-.88-1.23-.61 0-1.03.35-1.49.74v3.1l.02.94c0 .27.05.48.07.62h-1.54l.04-.38c.02-.13.02-.25.03-.38l.01-.38-.01-.38v-3.2c0-.79-.11-1.1-.35-1.25.54-.27.87-.42 1.12-.42.24 0 .57.42.57.92.54-.57 1.31-.98 2.01-.98.71 0 1.23.24 1.54.74l.05.11a.61.61 0 0 1 .05.12c.02.04.03.07.04.11s.03.08.04.12l.04.26.03.27c.01.08.01.17.01.26a1.22 1.22 0 0 1 0 .27v2.61c0 1.03.05 1.47.09 1.58h-1.56zm-10.09-5.34h-.35c-.44 0-.9.25-1.32.75v3.12l.07 1.47h-1.54c.01-.03.02-.06.02-.09.01-.03.01-.06.01-.09.01-.03.01-.06.01-.09s.01-.05.01-.08l.02-1.1v-3.27c0-.7-.11-1.1-.35-1.25.44-.22.85-.42 1.12-.42.26 0 .57.44.57.92.44-.66.96-.98 1.58-.98l.35.04-.2 1.07z"/><path fill-rule="evenodd" d="M46.19 19.77a.75.75 0 0 1-.04-.16l-.03-.15c-.01-.05-.02-.1-.02-.15-.01-.05-.02-.11-.02-.16a2.3 2.3 0 0 1-.38.33c-.14.1-.29.18-.44.25a2.9 2.9 0 0 1-.48.14c-.17.04-.34.05-.5.05-1.06-.02-1.89-.61-1.91-1.76-.05-2.01 2.04-2.63 3.68-2.12 0-.93.07-1.85-1.14-1.85l-.31.01-.31.03c-.1.01-.2.03-.3.05l-.31.07c-.06.01-.11.03-.17.05l-.18.07c-.05.02-.11.04-.16.07l-.17.09.16-.9.44-.17c.15-.05.3-.09.46-.12.15-.04.31-.06.47-.08.15-.02.31-.02.47-.02 1.67 0 2.46.55 2.46 2.3v2.68c-.01.12-.01.24 0 .36l.01.37.04.36.06.36h-1.38zm-.14-3.08c-1.33-.35-2.26.64-2.26 1.3s.4.92 1.04.92a1.84 1.84 0 0 0 .33-.03 1.68 1.68 0 0 0 .62-.24 1.31 1.31 0 0 0 .27-.19v-1.76z"/><path d="M31.48 12.11l-.53-.19-.54-.13-.56-.08-.56-.02a2.81 2.81 0 0 0-.65.06c-.22.04-.43.1-.63.18-.2.09-.39.19-.57.32s-.35.27-.5.43c-.15.17-.29.36-.41.56s-.23.41-.31.63-.14.45-.17.68c-.04.23-.06.46-.05.7 0 1.12.28 2.02.85 2.67.57.66 1.32.99 2.33.99l.33-.01a1.87 1.87 0 0 0 .34-.03l.32-.06.33-.1v-2.63h-1.19l-.01-.27-.03-.26-.04-.26c-.01-.09-.03-.18-.05-.26l2.87.11c-.11.33-.11.74-.11 1.47v1.14.4c0 .13.01.27.02.4l.04.4.05.4c-.23.1-.48.18-.72.26l-.75.19-.76.12a6.62 6.62 0 0 1-.77.04c-1.49 0-2.64-.41-3.47-1.22-.83-.82-1.29-1.91-1.29-3.34-.01-.32.02-.64.07-.96.06-.32.15-.63.28-.92a4.61 4.61 0 0 1 .45-.85c.18-.27.39-.51.62-.74.9-.9 2.11-1.34 3.58-1.34s1.73.16 2.41.4l-.22 1.12"/></g><path d="M18.8 13.95s.37-1.82-.53-4.17c0 0-.68-1.8-2.06-1.78 0 0-.83-.15-1.29 1.28 0 0 2.72 1.71 3.88 4.67z" fill="url(#A)"/><path d="M14.46 9.78s2.67 1.27 4.01 4.72c0 0-.66.37-1.89.29-1.22-.09-3.44-1.21-3.57-2.86-.13-1.64 1.45-2.15 1.45-2.15z" fill="url(#B)"/><path d="M18.54 15.75s-1.32-.64-4 1.05c-2.67 1.69-1.03 3.69.03 4.04.44-.31.86-.66 1.26-1.04.4-.37.76-.78 1.1-1.21.33-.43.64-.88.91-1.36s.5-.97.7-1.48h0z" fill="url(#C)"/><path d="M15.03 21.43s2.37-1.55 3.81-5.13c.08.49.12.99.11 1.48 0 .5-.06 1-.15 1.48-.1.49-.23.97-.41 1.43-.18.47-.41.91-.66 1.34-.26.42-1.61 2.15-2.7-.6z" fill="url(#D)"/><path d="M19.59 14.46S19.2 10 20.91 9.3c0 0 .92-.11 1.03 1.32 0 0-.11 1.66-2.35 3.84z" fill="url(#E)"/><path d="M19.88 14.79s1.95-1.61 2.43-3.76c0 0 .86.81.07 2.15s-1.58 1.69-2.5 1.61z" fill="url(#F)"/><path d="M20.05 15.53s1.21-.04 2.31 1.3c0 0 .89 1.12-.11 2.48 0 0-.58-2.24-2.2-3.78z" fill="url(#G)"/><path d="M19.7 15.79s1.38 1.04 2.17 3.93c0 0-.06 1.01-.9.95-.83-.07-1.14-.73-1.29-2.48l.02-2.4z" fill="url(#H)"/></svg>