<svg xmlns="http://www.w3.org/2000/svg" baseProfile="tiny-ps" width="110" height="30" xmlns:v="https://vecta.io/nano"><path fill-rule="evenodd" d="M84.91 17.72a5.5 5.5 0 0 1-.31 1.05c-.13.34-.3.67-.5.98a6.94 6.94 0 0 1-.68.86c-.16.17-.34.32-.54.45-.19.13-.4.24-.62.33a3.05 3.05 0 0 1-.67.2c-.23.04-.47.05-.7.04h-.49a1.86 1.86 0 0 1-.19.11c-.07.03-.13.05-.2.07l-.21.05-.21.02h-2.51c0-.25.08-.38.08-.5 0-.11.2-.36.33-.36l.24.49c.03-.03.05-.05.08-.09.02-.03.04-.06.05-.1.02-.03.03-.07.03-.11.01-.03.01-.07 0-.11 0-.16-.28-.41-.28-.41l.24-.24c.13.07.13.21.2.21.2 0 .31-.06.31-.14 0-.07-.2-.16-.26-.31l-.09-.06c-.04-.02-.07-.04-.1-.05-.04-.02-.07-.03-.11-.04-.03-.01-.07-.01-.11-.01-.29 0-.78.72-.82 1.13l-.04.7h-.45v-.24-.23l.02-.24c0-.07.01-.15.02-.23 0-.04.16.08.25.12 0-.12.2-.24.12-.37l-.25-.24.13-.32s.37.17.37.08c0-.08-.17-.16-.05-.21.13-.04.33.13.37.05.04-.09.04-.09 0-.17-.04-.02-.09-.03-.14-.05l-.14-.03c-.05 0-.09-.01-.14-.01h-.15c-.37 0-.29.05-.37.17-.45.04-.65.13-.9.13l-.45.6v.21c0 .06.01.13.01.2l.03.21.04.2c.04.08.12.21.21.37h-4.74a1.63 1.63 0 0 1 .06-.13c.02-.04.04-.09.07-.13.02-.04.05-.08.07-.12.03-.04.05-.08.08-.12 0 .13.09.13.13.17h.32a.17.17 0 0 0 .1 0c.03 0 .07-.01.1-.03.03-.01.05-.03.08-.06.02-.02.04-.05.05-.08-.05-.01-.1-.02-.15-.04l-.15-.06-.14-.08c-.05-.03-.09-.07-.13-.1v-.44c0-.07-.02-.13-.04-.18-.03-.06-.06-.11-.11-.15a.39.39 0 0 0-.16-.1c-.06-.02-.12-.02-.18-.02-.05 0-.09.01-.14.02-.04.01-.08.03-.12.05s-.08.04-.11.07c-.04.03-.07.06-.1.1-.15-.09-.28-.24-.44-.24V20c0-.12.04-.12.04-.21.07-.02.13-.03.2-.04s.14 0 .21 0a1.17 1.17 0 0 1 .2.05c.07.02.13.05.19.09h.21c0-.05-.04-.05-.04-.09-.07-.08-.14-.15-.23-.2-.09-.06-.18-.1-.28-.13a.99.99 0 0 0-.3-.04c-.1 0-.2.01-.3.04-.21.08-.21.37-.33.21-.2 0-.33.12-.49.12l-.29.04c-.04.05 0 .05-.04.17-.04.06-.08.11-.11.17a.99.99 0 0 0-.11.17c-.03.06-.07.11-.1.17l-.09.18-.02.21a.74.74 0 0 0 0 .21c0 .06.01.13.02.2s.02.14.04.2a.55.55 0 0 1 .07.09c.02.03.03.06.05.09s.04.06.05.09c.02.03.03.07.04.1h-6.14a.94.94 0 0 1-.12-.22c-.03-.07-.06-.15-.08-.23l-.05-.24c0-.08-.01-.16 0-.25 0-.05.01-.1.02-.16.01-.05.03-.1.05-.15s.05-.09.08-.14c.03-.04.06-.08.1-.12-.01-.07 0-.14.01-.2.01-.07.03-.14.06-.2s.07-.11.11-.16c.05-.05.1-.1.16-.13a.57.57 0 0 1 .16-.11 1.33 1.33 0 0 1 .19-.05c.06-.01.13 0 .19.01.07.01.13.03.19.06a.57.57 0 0 1 .13-.14c.04-.04.09-.08.15-.11s.11-.06.17-.08c.07-.02.13-.03.19-.04a1.34 1.34 0 0 1 .2.01c.07.01.13.02.19.04a.75.75 0 0 1 .18.08c.06.04.12.07.17.12.04-.22.1-.44.16-.66l.21-.65.24-.62.29-.62-.23-.58-.2-.59-.17-.6-.14-.61c.01-.01.01-.02.01-.03s.01-.02.01-.03c.01-.01.01-.02.02-.03 0-.01.01-.02.01-.03l.12-.12c.01-.04.03-.08.05-.12a.61.61 0 0 1 .05-.12c.02-.04.05-.07.07-.11l.07-.1c-.02-.01-.04 0-.06 0-.03 0-.05.01-.07.01l-.06.03c-.02.01-.03.02-.05.04-.12.04-.21.12-.21.2-.01-.01-.01-.02-.02-.04-.01-.01-.01-.02-.01-.04-.01-.01-.01-.02-.01-.04v-.04-.49c0-.13.12-.33.28-.33v-.51c-.03.02-.06.05-.09.07-.03.03-.06.05-.09.08-.03.02-.07.05-.09.07-.03.03-.06.06-.09.08v-.63c.02-.01.05-.02.07-.04.02-.01.04-.03.06-.05a.3.3 0 0 0 .04-.08c.01-.02.02-.05.03-.08-.01-.18-.01-.36 0-.55l.04-.55.08-.55.13-.54c.02-.04.04-.09.06-.14l.09-.12c.03-.04.06-.08.1-.12.03-.04.07-.07.11-.1v-.6c.17-.05.25-.25.41-.29-.04-.04-.16-.04-.24-.04a1.89 1.89 0 0 1 .11-.25c.04-.08.09-.16.15-.23.05-.07.11-.14.18-.2a1.2 1.2 0 0 1 .21-.17c.02-.03.04-.05.06-.08.02-.02.05-.04.07-.06.03-.02.05-.04.08-.06.03-.01.05-.03.08-.05v.05c.29 0 .5.11.79.11-.02-.03-.05-.06-.08-.08-.02-.03-.05-.06-.09-.08-.03-.02-.06-.03-.1-.05a1.64 1.64 0 0 0-.11-.03c.05-.03.09-.06.14-.08.05-.03.1-.05.16-.07a.75.75 0 0 1 .16-.04c.05-.01.1-.02.16-.02.04.21.28.33.28.49l.17.08c-.03-.2.08-.48-.17-.65.08.02.16.03.24.06l.23.07.22.09c.07.03.14.07.21.11.09 0 .3-.16.46-.16-.02.06-.03.12-.05.18l-.03.18-.03.19c-.01.06-.01.12-.02.18.12-.12.16-.25.28-.33 0-.16.13-.28.17-.49l.17-.02c.06 0 .12-.01.18-.01s.11.01.17.01l.17.02c-.23.09-.19.25-.19.37.16 0 .31-.16.42-.16.04-.01.08-.01.13 0a.5.5 0 0 1 .12.02l.1.06c.04.02.07.05.1.08-.04.02-.07.03-.1.05-.03.01-.06.03-.09.04l-.09.06c-.03.01-.06.03-.09.05h.69l.13-.08c.11.1.21.21.31.32.1.12.18.24.26.37s.15.26.2.4c.06.14.11.29.14.43l-.06-.03-.06-.03-.06-.03c-.02-.01-.04-.02-.06-.02 0 .11.01.36.16.36s.19.12.31.2c.24.25.61.45.69.82l.15.34.13.35.11.34.11.36c-.13-.13-.34-.04-.45-.24 0 .04.01.09.03.14a.38.38 0 0 0 .06.13c.02.04.05.08.08.11.03.04.07.07.11.1.02.02.05.03.08.04.02.01.05.02.08.03.02.01.05.01.08.01.03.01.06.01.09 0 .04.07.07.13.1.2l.08.21c.02.07.04.14.05.22.01.07.01.15.02.22-.02-.02-.04-.03-.06-.05-.02-.01-.04-.03-.06-.04s-.04-.03-.07-.04c-.02-.01-.04-.02-.06-.02-.21.18.2.43.32.47v.6c.11.09.22.17.34.24a2.64 2.64 0 0 0 .38.18c.12.05.26.08.39.11.14.03.28.04.42.05.11 0 .22-.01.33-.02a1.98 1.98 0 0 0 .33-.08c.11-.03.21-.07.31-.11.1-.05.2-.11.29-.17 0-.06 0-.13.01-.19.01-.07.03-.13.06-.19.02-.06.05-.12.09-.17s.09-.1.14-.14c.04-.04.09-.08.14-.11s.1-.05.16-.07c.05-.02.11-.03.17-.03s.12 0 .18.01a1.89 1.89 0 0 1 .41.1c.13.04.26.1.39.17.12.07.24.15.34.24a2.2 2.2 0 0 1 .3.31c.26.31.5.66.7 1.02a6.69 6.69 0 0 1 .52 1.12 7.05 7.05 0 0 1 .31 1.2c.07.41.1.82.1 1.24l-.01.41c0 .14-.01.28-.03.42l-.06.41-.1.41.15.09c.05.03.1.05.16.07.05.02.1.04.16.05s.11.02.17.02c1.06 0 2.77-1.15 2.77-4.16 0-.52-.08-1.05-.23-1.55a5.81 5.81 0 0 0-.64-1.44c-.27-.45-.61-.86-.99-1.21a5.79 5.79 0 0 0-1.29-.91c-.52-.16-.97.08-1.5 0a1.39 1.39 0 0 1-.28-.12c-.08-.04-.17-.09-.25-.15a1.3 1.3 0 0 1-.23-.18l-.15-.15c.11.08.31.03.48.1.04-.08-.08-.16-.08-.2.05-.03.11-.05.17-.07.05-.02.11-.03.17-.04s.12-.02.18-.02h.17c-.2-.32-.49-.12-.69-.24-.01-.02-.03-.03-.05-.05-.03-.01-.05-.01-.07-.01-.03 0-.05 0-.07.01-.03.02-.04.03-.06.05.01.02.02.04.02.06.01.02.02.05.02.07.01.02.01.04.02.06v.07c-.08 0-.2-.08-.29-.08h-.23c-.21-.25-.29-.74-.7-.86v-.08l.46-.16.47-.11.48-.07c.16-.02.32-.03.48-.03.09 0 .21 0 .25.08l-.16.16a1.06 1.06 0 0 0 .12.1c.05.03.1.05.14.07a.88.88 0 0 0 .15.05l.16.03h.07l-.13-.37.15.1.15.12c.04.04.09.08.13.13l.12.13.12.23.14.21c.05.07.11.13.16.2l.18.18c.49.54 1.11.81 1.68 1.39.32.32.61.66.87 1.03.25.38.47.77.65 1.19.18.41.31.85.41 1.29.09.44.14.89.15 1.34a6.8 6.8 0 0 1-.09 1.1zm-6.36-7.22l.06.06a.17.17 0 0 1-.06-.06zm-6.6 2.27l-.39-.19-.41-.14-.43-.08-.43-.04v-.08c.26-.04.47-.37.55-.62.05-.03.08-.07.12-.11.03-.05.06-.09.08-.14a.47.47 0 0 0 .06-.15c.02-.06.03-.11.03-.16v-.13c0-.03.04-.15 0-.15 0 .15-.12.15-.21.15.04-.07.07-.15.09-.23l.05-.24v-.25c-.01-.08-.03-.16-.05-.24.12 0 .12-.09.2-.09l.24-.24c.25-.12.13-.45.25-.69-.12-.2-.17-.39-.33-.6s-.45-.12-.61-.25c-.28-.07-.47.13-.62.25-.12 0-.12.12-.12 0l-.03.13c-.02.04-.03.08-.04.12-.02.04-.03.08-.05.12a.61.61 0 0 1-.05.12c-.08-.02-.17-.02-.26-.02a2.11 2.11 0 0 0-.26.02l-.26.07c-.08.03-.17.07-.24.11-.09-.1-.29-.1-.53-.18h-.08c-.03 0-.06-.01-.08-.01-.03 0-.06-.01-.09-.01-.02-.01-.05-.02-.07-.02-.14-.21-.14-.45-.38-.45-.01-.01-.03-.02-.04-.04s-.02-.03-.03-.05-.01-.04-.01-.06v-.06c-.04-.01-.07-.03-.11-.04l-.11-.03-.12-.03c-.04-.01-.07-.01-.11-.01-.25-.13-.37.07-.57.11-.01.02-.03.04-.04.06-.02.01-.04.03-.06.04-.01.01-.04.02-.06.02-.02.01-.04.01-.06.01l-.32.57c.01.05.02.09.04.14.01.05.03.1.04.14l.06.14.06.14c.03.05.07.1.11.15l.12.13.15.11c.05.04.1.07.16.09-.17.21-.08.82 0 1.05l-.17.08a1.37 1.37 0 0 0 .07.24c.03.08.07.16.11.23.04.08.09.14.14.21.06.07.11.13.18.18.08 0 .08.12.12.2v.17a2.67 2.67 0 0 0-.4 0 2.63 2.63 0 0 0-.39.06 2.43 2.43 0 0 0-.38.13c-.12.05-.24.11-.35.18 0 .02.01.04.01.06.01.03.01.05.01.07a.17.17 0 0 1 .01.07c0 .02.01.05.01.07l.22-.15c.07-.04.15-.08.23-.11l.25-.08c.08-.03.17-.04.25-.06.16 0 .32-.08.49 0v.27l-.32.14-.3.17-.29.18-.28.21v.29l.3-.24.33-.21.33-.2.35-.17.06.09c.02.03.05.06.07.08.02.03.05.05.08.08a.57.57 0 0 0 .08.07l.27-.14.29-.11a3.25 3.25 0 0 1 .3-.07c.1-.02.2-.03.3-.04l.04-.4c-.24-.11-.32-.24-.28-.49-.08 0-.25.08-.25.08s-.12-.03-.12-.11c0-.09-.04-.21.04-.21.05-.03.1-.05.16-.07a.75.75 0 0 1 .16-.05c.05-.01.11-.01.17-.02.05 0 .11.01.17.01.24 0 .78 0 .78.25 0 .12 0 .2-.13.2h-.16c-.02.05-.04.1-.07.14l-.09.11c-.04.04-.08.07-.12.1-.04.02-.08.05-.13.06 0 0 .08.44.21.44l.25.07c.09.02.17.06.25.09l.23.13.22.15c.03-.16.22-.24.22-.32a2.78 2.78 0 0 1 .4.16l.36.22a2.1 2.1 0 0 1 .33.26c.11.09.21.19.3.3v-.37l-.3-.23-.32-.21-.33-.18c-.11-.06-.23-.11-.34-.16 0-.02.01-.05.01-.07v-.07-.07c0-.03-.01-.05-.01-.07.14.01.27.03.41.05l.41.1.4.15.38.19.02-.27zm-2.34-.22l.04-.07h.4v.21l-.44-.14zm-1.94-3.6c-.07.03-.13.06-.2.1l-.2.11-.19.12-.18.13c-.17-.24-.4 0-.51-.37a.76.76 0 0 1 .03-.21c.02-.07.05-.13.08-.19a1.15 1.15 0 0 1 .14-.17c.05-.05.11-.09.18-.12h.16c.2.16.65.2.69.6zm.87.46c-.03.02-.05.05-.08.08s-.05.06-.08.09c-.02.03-.05.06-.07.09l-.06.1h-.44c0-.04.01-.07.03-.11.02-.03.04-.06.07-.09s.06-.05.1-.06c.03-.02.07-.03.11-.03.12-.08.37-.16.45-.08l-.03.01zm2.01.87c-.04.07-.12.07-.19.07s-.07.21-.15.25a.37.37 0 0 1-.11.05c-.04.02-.08.03-.12.03-.04.01-.08.01-.13.01-.04 0-.08 0-.12-.01-.08-.08-.12-.16-.12-.16h-.04c.01.05.02.11.02.16.01.05.01.11.02.16V11v.16l.24.1c0 .37.36.25.51.45-.03.13-.07.29-.15.29-.03-.03-.07-.05-.11-.07l-.12-.06c-.04-.03-.08-.04-.13-.06a.61.61 0 0 0-.12-.05c0-.05-.01-.09-.02-.14-.02-.04-.04-.08-.07-.11-.03-.04-.07-.06-.11-.08-.04-.03-.08-.04-.13-.04.01-.09.01-.18.01-.27l-.02-.26c0-.09-.01-.17-.03-.26l-.04-.26h.08c0-.12.21-.12.29-.24l.86.12c.09.04 0 .04 0 .04v.02zm-.98-.54c-.17-.04-.08-.33-.29-.33h-.08c.12-.09.12.08.29 0 .16-.09.16.24.36.24.05 0 .09 0 .09.12l-.37-.03zm1.76-.22c-.08.12-.17 0-.28.12h-.14c-.03-.07-.08-.14-.13-.21a1.46 1.46 0 0 0-.35-.35c-.06-.05-.14-.09-.21-.13 0-.04 0-.09.01-.13s.02-.08.04-.12.05-.07.07-.11a.7.7 0 0 1 .1-.08l.28-.12c.2.12.42.2.52.37.04.06.06.12.09.18.02.06.03.13.04.19a.67.67 0 0 1 0 .2c-.01.07-.02.13-.05.19h.01zm-8.43 11.3c.02-.06.03-.12.03-.18a.47.47 0 0 0-.04-.17c-.02-.06-.05-.11-.09-.15s-.09-.08-.14-.11l-.34.45v.65c.03.16.18.32.26.32 0-.02.01-.04.01-.06.01-.02.01-.04.01-.06.01-.02.01-.04.01-.06.01-.02.01-.05.01-.07 0-.28-.12-.44 0-.69.11 0 .24.13.28.13zm1.05-.46c0-.2-.16-.23-.28-.27 0-.13 0-.3.2-.3h-.44c-.12.09-.2.3-.32.42l-.06.2c-.02.07-.03.13-.04.2l-.03.21v.2a.43.43 0 0 0 0 .16c0 .05 0 .1.01.15l.03.15c.01.06.03.1.05.15.03-.01.06-.03.1-.05.03-.01.06-.03.09-.05s.06-.05.09-.07.05-.05.08-.08a.63.63 0 0 1-.08-.23c-.02-.08-.03-.16-.02-.24 0-.08.01-.16.04-.24s.06-.15.11-.22c.19 0 .31.21.35.37.02-.04.04-.07.05-.11.02-.04.03-.07.04-.11s.02-.08.02-.12c.01-.04.01-.08.01-.12zm1.43.25c0-.25-.24-.4-.41-.48l.17-.25-.21-.04c-.06 0-.11 0-.17.02-.06.01-.11.03-.17.05-.05.03-.1.06-.14.1a.49.49 0 0 0-.13.12l-.15.33c-.04.11-.07.22-.09.34-.03.12-.04.24-.05.36s-.01.24 0 .36l.01.02c.01.01.01.01.02.01a1.14 1.14 0 0 0 .1-.19l.09-.19.11-.18.12-.17c.04-.13.04-.21.16-.3.03.01.06.02.09.02.03.01.06.03.09.04s.06.03.08.05c.03.02.05.04.07.06 0 .25-.11.49-.11.69 0 0 .52-.44.52-.77zm1.08-.73l-.38-.09c-.12-.16-.08-.2-.08-.24 0-.25-.29-.25-.41-.37l-.25-.13h-.24c-.02.03-.04.05-.06.07-.02.03-.03.06-.04.08-.01.03-.02.06-.02.09-.01.03-.01.06-.01.09.09.08.09-.03.25 0 .21.17.57.21.9.5l.27.73.11-.4-.04-.33zm.61-.25c-.08-.17 0-.41-.24-.41-.02-.01-.04-.03-.06-.04-.02-.02-.03-.04-.04-.06-.01-.03-.02-.05-.03-.07v-.08c-.04-.02-.08-.05-.12-.08-.04-.02-.08-.05-.12-.08s-.08-.07-.11-.1c-.04-.03-.07-.06-.11-.1-.12-.05-.19-.21-.36-.21-.08-.12-.25-.12-.37-.12-.25 0-.25.2-.33.37v.08c.21-.04.33-.12.49-.08l.13.11.13.1c.05.03.09.07.13.1l.14.09.5.25c.08.05 0 .08 0 .16.12.13.03.33.12.42l.29-.25h-.04zm.24-1.3c-.08-.04-.25-.08-.33-.12v-.12l-.11-.09-.12-.09c-.04-.02-.08-.05-.13-.07-.04-.02-.08-.04-.13-.05-.06-.21-.4-.17-.69-.21l-.29.32v.13c.04-.03.09-.05.13-.07.04-.01.09-.03.13-.04.05-.01.09-.02.14-.02h.14c.15.13.27 0 .38.13.02.03.03.07.05.1a.36.36 0 0 0 .07.1.55.55 0 0 0 .07.09c.02.03.05.06.08.08.25 0 .46.29.54.57l.04-.61.03-.03zm-.21-2.09c-.08 0-.12-.04-.16 0-.15.26-.4.61-.7.69.22 0 .49.08.7-.08l.16-.6v-.01zm-.87-.45c0 .2-.11.41-.11.65l.15-.12a.64.64 0 0 0 .1-.13c.03-.04.06-.09.08-.13a.88.88 0 0 0 .05-.15c.02-.06.02-.11.03-.16-.07-.09-.18 0-.3.04zm-.15-.66l-.38-.08-.06.06-.06.06-.05.08-.03.08a.3.3 0 0 0 .04.08c.01.03.01.06.02.08.01.03.01.06.02.09v.08c.08-.24.29-.33.5-.53zm2.85 2.9h-.61l.24.33c.05.02.09.02.13.03.04 0 .09 0 .13-.01.04 0 .09-.02.13-.03.04-.02.07-.05.11-.07l-.13-.25zm-1.02-1.62l-.33.34c-.16.1-.28.14-.41.22l.14.03h.15.14l.15-.03c.25-.08.36-.31.48-.56h-.32zm5.46 3.73c0-.12-.16-.12-.24-.16 0-.04-.01-.08-.02-.12a.37.37 0 0 0-.05-.11c-.02-.03-.05-.06-.08-.09l-.1-.06c-.07-.04-.14-.07-.22-.1-.07-.03-.15-.06-.23-.08-.08-.03-.16-.05-.24-.06-.07-.02-.16-.03-.24-.04l-.32.04c-.17.03-.33 0-.49.12l-.26.31c.24-.12.57-.04.69-.12.13-.08.04.03.2.12.17.09.21.42.45.34.27.09.23.48.23.69l.25-.12c-.04-.09.04-.18-.04-.37s-.21-.19-.36-.32c.15-.21-.08-.21-.12-.37l.31.04c.04.01.07.03.09.06.03.02.06.05.08.08.02.02.04.06.05.09.02.03.03.07.03.1.29 0 .37.36.45.6.02-.04.03-.08.04-.12s.02-.08.04-.12c.01-.04.03-.08.04-.12s.03-.08.04-.11h.02zm-4.4-3.39c-.04-.01-.07-.01-.11 0-.04 0-.08 0-.12.01s-.08.02-.11.04c-.04.01-.07.03-.11.05l-.06.12c-.02.04-.05.07-.07.11s-.05.07-.08.11a.7.7 0 0 1-.08.1c-.07.13-.2.17-.23.29.23-.12.48-.16.61-.24.2-.29.32-.37.36-.59zm-2.06-1.65l-.1-.2-.13-.18c-.05-.06-.1-.11-.15-.16v-.04c-.02-.03-.03-.06-.05-.08-.02-.03-.05-.05-.07-.07-.03-.01-.06-.03-.09-.04s-.06-.02-.09-.02a.53.53 0 0 0 .01.13c.01.04.01.08.02.12.01.05.02.09.04.13a.61.61 0 0 0 .05.12c.03.05.08.11.12.16l.15.14.17.12.19.09-.07-.22zm3.02 2.69h-.33c0 .02.01.04.01.06a.17.17 0 0 0 .01.07c0 .02 0 .04.01.06 0 .02.01.04.02.06l.09.06.1.06c.03.02.06.03.1.05l.11.03h.08l-.2-.45zm2.04 2.9c0-.03.01-.06.01-.09v-.1c-.01-.03-.01-.06-.02-.09l-.03-.09c-.09-.11-.29-.02-.29-.11 0-.08-.08-.12-.16-.21-.02 0-.03-.01-.04-.01h-.04-.04c-.02 0-.03.01-.04.01l-.17.09c.08.04.25.19.45.23s.13.37.24.5l.13-.13zm-4.85-6.25a1.18 1.18 0 0 0 .04.2c.02.07.04.13.07.19.02.07.05.13.08.19l.1.18.11-.51-.4-.25zm1.19 1.42h0zm0 0c0-.25-.09-.41-.09-.61-.03-.02-.06-.03-.09-.04-.03-.02-.06-.03-.09-.03-.03-.01-.06-.02-.09-.02-.04 0-.07 0-.1.01 0 .23.21.44.46.69zM72.92 19c-.09-.07-.18-.13-.29-.18-.1-.05-.21-.09-.32-.12s-.23-.04-.34-.04c-.11-.01-.23 0-.34.02v-.04h-.1c-.04 0-.07 0-.11.01-.03 0-.07 0-.1.01-.03 0-.07.01-.1.02s-.06.02-.09.02c-.03.01-.06.02-.09.02-.03.01-.06.02-.1.02-.03.01-.06.01-.09.02l-.21.49c.06-.05.11-.09.17-.12.05-.04.12-.07.18-.1s.12-.05.19-.07c.06-.02.13-.03.2-.04.08.04.04.08.08.08h.14c.04 0 .09 0 .13-.01.04 0 .09 0 .13-.01.05 0 .09-.01.14-.02h.11c.04 0 .08 0 .12.01.04 0 .08 0 .12.01a.5.5 0 0 1 .12.02c.08.21.33.21.49.33l-.04-.33zm-2.51-2.15l-.12-.12c-.03-.04-.07-.08-.11-.12s-.08-.08-.13-.11l-.65-.13.15.21.16.19c.05.07.11.13.16.19l.18.17c.05 0 .09 0 .13-.01l.12-.03c.03-.01.07-.03.11-.05.03-.02.07-.04.1-.07-.03-.04-.07-.08-.1-.12zm-1.28-1.66c-.03.03-.06.07-.09.1l-.1.1-.11.09c-.04.02-.07.05-.11.07l.08.41c.33-.12.33-.49.33-.77zm3.72 3.29h0zm-.01 0c-.12-.2-.21-.45-.49-.58h-.08-.08c-.02-.01-.05-.01-.08-.01-.02-.01-.05-.01-.07-.02-.25-.29-.45.25-.7.16-.03.01-.06.03-.09.05-.03.03-.05.05-.07.08s-.04.06-.05.1c-.02.03-.03.07-.03.1v.04l.13-.03c.04-.02.08-.03.12-.05l.11-.08c.03-.02.06-.05.09-.09.24-.03.45.25.65.09.05-.09.11.04.16.04.11.2.28.2.48.2zm.94.62c.03-.21-.29-.41-.42-.62v.13c.08.36.33.74.21 1.18.08 0 .12.09.21.21v-.9zm-3.76-3.26c-.03-.05-.05-.11-.07-.17l-.06-.19c-.02-.06-.03-.12-.04-.19-.02-.06-.02-.12-.03-.19-.03.02-.06.05-.09.07s-.05.05-.08.08c-.02.02-.04.05-.06.08l-.06.1c-.08.25.29.29.49.41zm-4.47-5.19c-.03.04-.05.08-.07.12l-.06.12c-.01.05-.03.09-.04.13-.02.05-.03.09-.04.14l.21.69.04-.25.03-.26.02-.26.01-.26.21-.24-.31.07zm6.4 6.1c-.03-.03-.07-.05-.1-.08l-.11-.06-.12-.06c-.04-.02-.08-.04-.12-.05l-.12-.25c-.06 0-.13.01-.19.01-.06.01-.12.01-.18.02-.07.01-.13.03-.19.04s-.12.03-.18.05c.38.25.74.52 1.19.38h.12zm-2.07-3.3c-.08-.05-.16-.05-.24-.09-.16-.06-.32-.11-.49-.15-.16-.03-.33-.04-.5-.04-.17.01-.34.03-.5.07a2.46 2.46 0 0 0-.48.16c-.01.06-.01.12 0 .18 0 .05.01.11.02.16l.06.16c.03.06.06.1.09.15l.21-.2c.04 0 .04 0 .04.08v.37c.03.02.06.04.09.05.02.02.05.03.09.04l.09.03h.1c0-.12.13-.2.13-.29 0-.08 0-.16.11-.2l.07.05c-.01.03-.01.06-.01.08.01.03.01.06.01.09a.31.31 0 0 0 .02.08.31.31 0 0 0 .02.08v.12l.1.03h.11c.03 0 .07-.01.1-.02.03-.02.07-.03.1-.05 0-.04.01-.07.01-.1.01-.04.01-.07.02-.11.01-.03.02-.06.02-.1l.03-.1c.04 0 0-.12.04-.12.02.02.05.05.07.08s.03.06.05.09l.03.1c.01.03.01.07.02.1a1.15 1.15 0 0 0 .14-.17c.04-.06.08-.12.11-.19.03-.06.06-.13.08-.21a.76.76 0 0 0 .03-.21h.01zm1.16 2.23h0zm-.01 0c-.1-.11-.33-.2-.37-.35 0-.06-.02-.11-.03-.17l-.03-.18c-.02-.05-.03-.11-.05-.17-.01-.06-.03-.11-.04-.17a.67.67 0 0 0-.1.23c-.02.08-.04.16-.04.25 0 .08.02.16.04.24a.72.72 0 0 0 .1.24c.07.2.35.12.52.08zm-5.24-6.16a.57.57 0 0 0-.07.08l-.06.09-.06.1c-.02.03-.03.06-.05.09l-.04.21.28-.08v-.49zm6.84 6.78l-.17-.14-.16-.15c-.05-.05-.09-.1-.14-.16-.04-.06-.09-.11-.13-.17l-.12.03-.11.03c-.04.02-.08.03-.11.05l-.11.05c.03.04.07.07.1.1l.11.09c.04.03.08.05.12.08l.12.06c.05.03.09.05.14.07.05.01.1.03.15.04s.1.02.15.02h.16zm-1.42-1.5c.09-.37-.29-.37-.45-.49a.58.58 0 0 1 .05.14c.02.05.03.1.04.15.02.05.03.1.04.15l.03.15c.21.09.38.29.58.24-.13-.15-.29-.24-.29-.34zm3.6 3.22c0-.12-.29-.12-.24-.24 0-.02.01-.04.02-.06 0-.02.01-.04.01-.06s.01-.04.01-.06v-.06c0-.25-.09-.46-.17-.34-.07.13-.23.25-.23.41 0 .17.23.29.23.29.11.12 0 .12 0 .21.04.04.07.09.1.13.03.05.05.1.07.16.01.05.03.1.03.16a.43.43 0 0 1 0 .16c.05-.24.2-.44.2-.69l-.03-.01zm.91.45c0-.12-.25-.03-.25-.16.12-.2 0-.45 0-.53 0-.04.01-.09.01-.13v-.13-.14c0-.04-.01-.08-.01-.13-.08.16-.38.2-.38.45 0 .08.13.23.13.32s-.04.3-.04.38c0 .07.17.07.25.07.07 0 .07.42 0 .62.07-.16.32-.41.32-.62h-.03zM72 14.3c-.08.08-.16.21-.25.24.13.25.41.13.64.13L72 14.3zm1.59 1.3c-.07-.02-.13-.05-.19-.07l-.18-.09-.17-.12a1 1 0 0 1-.15-.13c-.03.02-.06.05-.08.07-.03.02-.06.04-.1.05-.03.02-.06.04-.09.05l-.11.03a.94.94 0 0 0 .18.12c.07.04.13.07.2.1l.21.05c.08.01.15.01.22.01l.21-.08.05.01zm-5.7-3.12c-.04.01-.07.01-.11.02-.03.01-.06.02-.09.04-.03.01-.06.03-.09.05s-.06.04-.08.06c-.02-.01-.04-.03-.06-.05-.01-.02-.03-.04-.04-.06s-.02-.04-.02-.07v-.07c.2.08.41-.08.49.08zm7.18 4.49c.08-.08-.08-.18-.12-.31-.04-.12 0-.29-.04-.29s-.09-.07-.13-.07c-.02.03-.04.06-.05.1-.02.04-.03.07-.04.11s-.02.08-.02.12-.01.08-.01.12c.02.03.03.07.05.1.01.04.03.07.05.11a.55.55 0 0 0 .07.09c.02.03.05.06.08.08.04 0 .16-.08.16-.16zm3.29 2.82c0-.16-.15-.12-.23-.24-.08-.13-.15 0-.28-.09.01-.02.02-.04.02-.06.01-.02.01-.04.02-.06v-.06c.01-.02.01-.04 0-.06-.12 0-.2-.12-.28-.12s-.08 0-.12.08l-.37.37c.2 0 .16-.17.41-.17.08 0 .2.21.2.37h.14c.05.01.1.01.14.03.05.01.1.02.14.04a1.63 1.63 0 0 1 .13.06l.08-.09zm-4.09-4.11c-.01.03-.02.06-.02.09-.01.03-.02.06-.02.09v.09c-.01.03 0 .07 0 .1.01.02.02.05.03.07l.03.08c.01.02.03.04.04.06.02.03.03.05.05.07.08-.08.15-.12.15-.24 0-.13-.15-.29-.26-.41zm1.86 1.61h0zm0 .01c-.04-.12-.16-.16-.28-.24.08-.08.12-.16.24-.27-.24-.16-.16-.53-.45-.53-.16-.12-.16-.17-.16-.25-.04-.03-.08-.06-.13-.08a1.96 1.96 0 0 0-.14-.06c-.05-.01-.1-.02-.15-.02-.05-.01-.1 0-.15 0 .16.12.36.2.41.37l.12.23.12.24.11.24.1.25.06.17c.02.05.04.11.05.17.02.06.04.11.05.17.02.06.03.12.04.18 0 .16 0 .25.12.25l.04-.82zm-2.07-2.31l-.1-.03c-.03-.02-.06-.03-.09-.05-.03-.01-.06-.03-.09-.05s-.06-.03-.09-.05l-.33.14c.05.04.1.07.16.1.06.02.12.03.18.04.06 0 .13 0 .19-.02a.48.48 0 0 0 .16-.08h.01zm-.92-.93c-.13 0-.16-.16-.28-.24-.13-.08-.25 0-.42.04 0 .09.04.13.08.2h.4c.03 0 .2.18.24 0h-.02zm3.57 3.21v.03-.03zm0 .02c-.01-.02-.01-.05-.02-.08a.31.31 0 0 0-.02-.08c-.01-.03-.03-.05-.04-.08s-.03-.05-.05-.08c0-.04-.15-.08-.2-.04s-.05.04-.05.09l.34.69c-.04-.15.03-.27.04-.42zm2.05 1.69c-.03-.04-.12-.25-.17-.33-.19 0-.31-.21-.49-.13-.12-.08-.25 0-.37 0 0 .17-.12.17-.04.42.23 0 .5-.21.7.04.04.03.04.37.32.41l.03-.1c.01-.04.01-.07.02-.1.01-.04.01-.07.02-.11 0-.03.01-.07.01-.1h-.03zm.83 1.15c0-.08-.09-.08-.09-.13-.01-.01-.01-.02-.02-.04v-.04-.05c.01-.01.01-.03.02-.04l-.03-.13-.06-.11a.9.9 0 0 0-.09-.1c-.03-.02-.07-.05-.11-.07l-.16.29c.16.34.41.46.41.65.01-.02.01-.04.02-.06l.03-.06.03-.06.05-.05zm-6.73-6.93c-.01-.03-.02-.06-.02-.1l-.03-.09c-.01-.02-.02-.05-.04-.08-.01-.03-.02-.06-.04-.09-.04-.04-.04-.24-.21-.16-.08-.08-.08-.16-.16-.32 0 .04-.01.08-.01.12v.12.12c0 .04.01.08.01.12a.55.55 0 0 0 .08.15c.03.04.07.08.11.11.05.03.09.06.15.07.05.02.1.03.16.03zm3.46 2.68c-.02-.02-.03-.05-.05-.07l-.06-.06c-.02-.02-.04-.05-.06-.06-.03-.02-.05-.04-.07-.06-.24-.04-.33-.37-.65-.37l.19.26a2.62 2.62 0 0 0 .22.25c.07.08.15.15.23.23l.25.21v-.33zm2.58 2.02c-.03 0-.06-.01-.1-.01l-.09-.03c-.03-.01-.06-.02-.09-.04-.03-.01-.06-.02-.09-.04-.23-.08-.16-.2-.46-.2-.03.01-.06.03-.08.06-.03.02-.05.04-.07.07s-.03.06-.04.09c-.01.04-.01.07-.01.1l-.04.29c.16-.04.24-.25.35-.25.57 0 .4.57.69.57l.03-.61zm.96 1.15c0-.04-.13-.33-.17-.33-.12.21-.12.37-.21.49l.25.37c.03-.04.05-.08.07-.12s.03-.09.04-.13c.01-.05.02-.1.02-.14v-.14zm-7.82-7.84c-.02-.03-.03-.07-.04-.1-.02-.03-.04-.07-.05-.1l-.06-.1-.06-.09-.21.89.33-.09.08-.41h.01zm7.08 6.37c0-.41-.25-.48-.25-.61 0-.12-.29-.12-.56-.12-.05 0-.09.01-.14.02a.59.59 0 0 0-.14.02c-.05.01-.09.02-.14.04-.04.01-.09.03-.13.04l.03.09a.3.3 0 0 0 .04.08.3.3 0 0 0 .04.08c.02.03.03.05.05.07.04-.01.08-.03.12-.04a.93.93 0 0 1 .13-.04l.13-.03c.04 0 .08-.01.13-.01.19 0 .28.08.28.21 0 .12.29.2.41.2zm.33-.88h0zm-.02 0c0-.16-.13-.33-.13-.45-.12-.04-.21-.2-.41-.2s-.17.08-.29.08-.19-.08-.39-.08-.16.16-.69.16v.41c.02.01.04.02.06.02.02.01.04.01.06.02h.06.06c.21 0 .36-.17.36-.29s.31 0 .31 0 .12-.12.2-.12c.21 0 .17.12.21.25.04.12.31.2.59.2zm-.08-.9c-.04-.25-.21-.57-.41-.57-.08 0-.17.08-.29.08s-.04-.21-.24-.21c-.04 0-.12.09-.23.09s-.24.04-.4.04-.16.2-.41.24l.04.37c.06-.04.12-.09.18-.12a1.28 1.28 0 0 1 .2-.11l.21-.08a.83.83 0 0 1 .21-.06l.29.03.28.07.27.1.25.13h.05zm-.94-.9c-.01-.05-.03-.11-.06-.16a.49.49 0 0 0-.12-.13.53.53 0 0 0-.15-.08c-.06-.01-.11-.02-.17-.02-.05.01-.1.03-.14.04a.54.54 0 0 0-.13.07c-.04.02-.08.05-.12.08s-.07.06-.1.1c-.02.02-.03.05-.04.08s-.01.06-.01.09 0 .06.01.09.02.06.04.08c.03-.04.07-.08.11-.11a.42.42 0 0 1 .14-.09.44.44 0 0 1 .16-.06c.05-.01.11-.01.16-.01.15 0 .19.03.42.03zm0-.59c-.01-.01-.02-.01-.03-.02.01.01.01.01.01.02h.02zm-.03-.02c0-.03-.01-.05-.02-.08l-.03-.1c-.01-.03-.03-.06-.04-.09-.02-.03-.04-.05-.06-.08-.15-.08-.43.04-.43-.2-.02-.02-.05-.03-.07-.04-.03-.01-.06-.01-.09-.01s-.06 0-.08.01c-.03.01-.06.02-.08.04-.17.07-.37.4-.24.57.03-.03.07-.05.11-.08a.61.61 0 0 1 .12-.05.61.61 0 0 1 .12-.05c.04-.01.09-.02.13-.02.06 0 .12.01.18.03.06.01.12.02.18.04l.17.06c.04.01.09.03.13.05zm1.07-4.65a.9.9 0 0 0-.1-.09c-.03-.03-.07-.06-.11-.09s-.08-.05-.12-.08c-.03-.02-.08-.04-.12-.06-.04.02-.08.05-.13.07-.04.02-.09.04-.14.06-.05.01-.1.03-.15.04l-.14.03c.15.12.19.12.27.12.09 0 .21-.12.29 0h.45zm1.19.62c-.04-.17-.21-.29-.28-.49-.21 0-.37.11-.5.11.16 0 .33.21.45.38.04 0 .07.01.11.02s.07.03.11.05c.03.02.06.04.09.07l.06.1-.04-.24zm-10.7 11.62h-.33l-.08-.27a2.29 2.29 0 0 1-.07-.28c-.02-.09-.03-.18-.04-.28l-.02-.28c0-.08.12-.32.21-.32.41.41.33.32.37.32l-.04 1.11zm.9-1.06l-.07.27-.09.26-.09.27c-.04.08-.07.17-.11.26h-.27l.08-1.06c0-.09.1-.21.26-.21.17 0 .29.05.29.21zm5.36-.5c-.03.05-.04.09-.06.14l-.05.14c-.01.05-.03.1-.04.15s-.01.1-.02.15c0 .08.01.16.02.24l.02.25c.02.08.03.16.04.24l.04.25h-.36l-.11-.21a1.02 1.02 0 0 1-.09-.22l-.06-.23-.03-.24c0-.08.04-.29.12-.29.08.13.08.25.17.33.02-.02.04-.04.06-.07.02-.02.04-.05.05-.08.02-.03.03-.06.04-.09 0-.03.01-.06.01-.09.01-.03 0-.06 0-.1-.01-.03-.02-.06-.04-.09-.01-.02-.03-.05-.05-.07-.02-.03-.05-.05-.07-.07l.41-.04zm-7.99-9.99c0 .4-.12.73-.12 1.09-.16.09-.28.2-.28.33-.04.01-.07.02-.11.04-.03.01-.07.03-.1.05-.04.02-.07.03-.1.05a.36.36 0 0 0-.1.07c-.12-.13 0-.34 0-.45.2-.13.44-.09.49-.37 0-.05.01-.09.02-.14 0-.05.01-.09.01-.14.01-.05.01-.1.01-.14v-.14c-.04-.08-.09.08-.2 0-.02.02-.05.03-.07.04-.03.01-.05.02-.08.02s-.05-.01-.08-.02c-.02-.01-.05-.02-.07-.04-.03-.04-.15-.08-.15-.25-.04.01-.07 0-.1-.01s-.06-.03-.08-.05c-.03-.02-.05-.05-.06-.08s-.02-.07-.01-.1h.98c.12.08.2.17.2.24zm.6 11.54c-.04-.33-.41-.57-.29-.98.09-.08.33-.08.37-.29-.04-.08-.08-.16-.12-.16l-.21.08c0-.08.05-.16.16-.31l.45-.09-.06.17c-.02.05-.03.11-.04.17s-.02.12-.02.18 0 .12.01.18l.01.27.04.27.07.26.1.26-.47-.01z" fill="#ff671d"/><path d="M57.97 18.03v2.91l-1.12.51a9.82 9.82 0 0 1-1.16.38c-.4.11-.8.19-1.21.24a9.87 9.87 0 0 1-1.22.1c-4.26 0-6.81-2.5-6.81-5.67.02-.85.22-1.68.56-2.46.35-.77.85-1.46 1.47-2.04a6.42 6.42 0 0 1 2.14-1.33c.79-.3 1.63-.44 2.48-.41l.6.02.59.08c.2.03.39.08.59.13l.57.17.28.12.29.09.3.08c.1.03.2.05.3.06.29 0 .37-.47.41-.75h.4l.38 3.92h-.5c-.04-.17-.09-.35-.16-.52a3.6 3.6 0 0 0-.23-.49l-.3-.45c-.11-.14-.24-.27-.37-.4a4.06 4.06 0 0 0-.65-.51c-.23-.15-.48-.28-.74-.37-.26-.1-.53-.18-.8-.22-.27-.05-.55-.07-.83-.06-2.56 0-4.05 2.02-4.05 5.07s1.82 5.06 4.25 5.06l.57-.04.55-.11c.18-.04.36-.1.54-.16l.52-.23v-3.01c0-.95-.15-1.33-1.54-1.33v-.45h5.14v.45c-1.28 0-1.24.41-1.24 1.62m-14.15-4.79v8.73h-.7l-8.72-9.02c.01.06.01.12.02.18.01.05.01.11.01.17a1.03 1.03 0 0 1 .01.17v.18 5.48c0 1.68 0 2.29 1.53 2.29v.45H31.9v-.45c1.55 0 1.55-.74 1.55-2.29v-6.24c0-.92 0-1.95-1.63-1.95v-.44h3.87l7.16 7.37a.77.77 0 0 0-.02-.15c-.01-.05-.01-.1-.01-.15-.01-.06-.01-.11-.01-.16v-.15-4.02c0-1.62.04-2.31-1.49-2.31v-.43h4.09v.43c-1.52 0-1.59.65-1.59 2.31zM24 21.88v-.45c.98 0 1.68-.09 1.68-1.51v-7.48c0-1.47-.54-1.51-1.68-1.51v-.43h5.77v.43c-1.19 0-1.68.04-1.68 1.51v7.48c0 1.42.62 1.51 1.68 1.51v.45H24z" fill="#00205c"/></svg>