<svg xmlns="http://www.w3.org/2000/svg" baseProfile="tiny-ps" width="110" height="30" fill="#00428a" xmlns:v="https://vecta.io/nano"><path d="M18 12.55v.98h1.52v3.69h1.12v-3.7h1.56v-.97H18h0zm6.79-.88a.6.6 0 0 1-.37.56c-.22.09-.48.04-.65-.13s-.23-.43-.13-.66a.6.6 0 0 1 .55-.37c.08 0 .16.02.23.05.08.03.14.07.2.13a.64.64 0 0 1 .13.19.62.62 0 0 1 .04.23h0zm1.66 0c0 .25-.15.46-.37.56a.62.62 0 0 1-.66-.13c-.17-.17-.22-.43-.13-.66.1-.22.32-.37.56-.37.08 0 .16.02.23.05s.14.07.19.13a.67.67 0 0 1 .14.19.62.62 0 0 1 .04.23h0zm6.82.88v4.68h1.07v-1.41l.85-.84 1.46 2.25h1.28l-1.96-3.07 1.55-1.61h-1.29l-1.89 2.01v-2.01h-1.07 0zm5.24.01h1.1v4.66h-1.1v-4.66zm1.15-.87a.6.6 0 0 1-.37.55c-.22.09-.48.04-.66-.13-.17-.17-.22-.43-.13-.66.1-.22.32-.37.56-.37.08 0 .16.02.23.05s.14.07.2.13c.05.06.1.12.13.19.03.08.04.16.04.24h0zm13.49-4.03v.26s.7 0 .7.64v4.37l1.79 1.03v-5.4a.56.56 0 0 1 .05-.25.54.54 0 0 1 .15-.22.61.61 0 0 1 .22-.13c.08-.03.17-.04.26-.04v-.26h-3.17zm2.7 1.56v.42c.24.12.47.27.68.44a2.9 2.9 0 0 1 .54.62 3.1 3.1 0 0 1 .36.73c.08.26.13.53.14.81h.28V9.22h-.24c-.03.06-.06.12-.1.17s-.09.09-.14.13-.11.06-.17.08a.58.58 0 0 1-.19.03c-.1-.01-.2-.04-.3-.06l-.3-.09-.29-.12c-.09-.04-.18-.09-.27-.14h0zm-2.21-.16v.36s-1.63.25-1.63 1.71c0 0-.12 1.15 1.84 2.15l2.43 1.32s1.75.79 2.29 2.2c.15.38.23.79.24 1.2 0 .42-.07.83-.22 1.21-.14.39-.36.74-.64 1.05-.28.3-.61.55-.98.73l-.38.17a4.68 4.68 0 0 1-.4.13c-.13.04-.27.07-.41.09-.14.03-.27.04-.41.05.09.05.17.11.24.19.07.07.14.15.19.24.05.08.09.18.12.28.02.1.04.2.04.3 0 .72-.8 1.83-1.16 1.84h-.19s0-.04.07-.16c.07-.13.6-.72.48-1.05-.05.02-.1.03-.14.05-.05.01-.1.02-.14.04-.05.01-.1.01-.15.02a.66.66 0 0 1-.14.01c-.21-.02-.41-.11-.56-.27-.15-.15-.24-.35-.26-.56a.92.92 0 0 1 .15-.6c.12-.17.3-.3.5-.36l-.29-.07-.29-.07-.29-.1-.28-.1c-.86-.32-1.54-.64-1.97.13h-.24v-3.2h.28a4.02 4.02 0 0 0 .5 1.21 4.28 4.28 0 0 0 .87.98c.34.27.73.49 1.14.63.42.15.85.23 1.29.23.31.02.61-.01.9-.11a2.2 2.2 0 0 0 .79-.44 2.35 2.35 0 0 0 .54-.72c.13-.28.21-.58.22-.88 0-.33 0-1.34-1.63-2.27l-3.2-1.78c-.26-.13-.51-.3-.73-.5s-.41-.43-.57-.68-.29-.52-.37-.81c-.09-.28-.14-.57-.15-.87.01-.36.08-.72.21-1.06a3.05 3.05 0 0 1 .58-.92c.25-.27.54-.49.87-.65.32-.16.68-.26 1.04-.29h0zm.19 6.67l1.78 1.01v2.07a.74.74 0 0 0 .05.25.69.69 0 0 0 .16.22.61.61 0 0 0 .22.13c.08.03.17.04.26.04v.26h-3.2v-.3s.71 0 .71-.64l.02-3.04zm-13.79-3.17h1.28l1.3 1.96 1.34-1.96h1.24l-2.06 2.8v1.87h-1.06v-1.87l-2.04-2.8h0zm5.52-.02h3.74v.95h-2.66v.81h1.52v.89h-1.52v1.11h2.77v.93h-3.86l.01-4.69h0zm10.18-6.55c0-.4-.24-.76-.6-.91a.98.98 0 0 0-1.08.2.99.99 0 0 0-.23 1.08c.15.37.5.62.9.62.14.01.27-.02.39-.07s.23-.12.33-.21c.09-.09.17-.2.22-.32.05-.13.07-.26.07-.39h0z"/><path d="M63.79 14.7c.11.03.22.08.32.14.09.06.18.14.25.23s.13.2.16.31c.04.11.06.23.05.34 0 1.5-1.74 1.5-1.74 1.5h-2.61v-4.66h2.52c.92 0 1.65.4 1.65 1.18 0 .1-.01.2-.03.3-.03.1-.07.19-.12.27-.06.09-.12.17-.2.23-.08.07-.16.12-.25.16zm-2.51-.4h1.59c.06 0 .12-.01.17-.04a.42.42 0 0 0 .14-.09c.05-.04.08-.09.1-.15.02-.05.03-.11.03-.17 0 0 .04-.42-.46-.42h-1.57v.87zm1.58 2.03c.08 0 .16-.01.23-.04a.49.49 0 0 0 .2-.11c.06-.06.11-.12.14-.19a.9.9 0 0 0 .06-.22c0-.6-.64-.64-.64-.64h-1.57v1.19h1.58v.01zm7.02.9h-1.22l-.43-1.04h-1.92l-.43 1.02h-1.15l2.05-4.65h1.07l2.03 4.67zm-1.95-1.94l-.64-1.59-.64 1.59h1.28z" fill-rule="evenodd"/><path d="M70.32 12.55v4.69h1.06v-3.02l2.32 3.01h.97v-4.67h-1.1v2.97l-2.25-2.98h-1 0z"/><path fill-rule="evenodd" d="M84.98 17.24h-1.2l-.41-1.03h-1.96l-.42 1.03h-1.96l-1.46-2.23-.84.87v1.34h-1.09v-4.67h1.09v2.05l1.92-2.04h1.32l-1.61 1.62 1.69 2.6 1.87-4.23h1.03l2.03 4.69zm-1.92-1.91l-.64-1.6-.64 1.6h1.28z"/><path d="M88.2 13.9l.81-.68a2.53 2.53 0 0 0-.42-.31c-.15-.09-.31-.17-.47-.23-.17-.07-.33-.11-.51-.15-.17-.03-.34-.05-.52-.05-1.16 0-1.92.58-1.92 1.4s.64 1.15 1.7 1.36c1.05.21 1.28.41 1.18.77s-.82.4-1.05.38a1.97 1.97 0 0 1-.34-.04c-.11-.03-.22-.06-.33-.11-.1-.05-.2-.1-.3-.17-.09-.07-.18-.14-.26-.23l-.79.64a3.65 3.65 0 0 0 .44.36c.16.1.33.19.51.26a3.35 3.35 0 0 0 .54.16c.19.03.38.05.57.05 1.31 0 2.1-.51 2.12-1.48s-.79-1.23-1.65-1.43l-.87-.18s-.38-.09-.38-.4.31-.42.82-.42a1.1 1.1 0 0 1 .31.04c.11.02.21.05.3.09.1.05.19.1.28.16.08.06.16.13.23.21zm1.73-1.34H91v4.67h-1.07v-4.67zm-67.1 0h1.09v2.76a1.15 1.15 0 0 0 .08.41 1.18 1.18 0 0 0 .23.35c.1.1.22.18.35.23a1.15 1.15 0 0 0 .41.08 1.16 1.16 0 0 0 .42-.08 1.21 1.21 0 0 0 .35-.24c.11-.1.19-.21.25-.34s.09-.27.1-.42v-2.75h1.08v2.64c.01.28-.04.56-.14.83-.1.26-.26.5-.47.7a1.81 1.81 0 0 1-.71.44c-.27.1-.55.14-.83.12-.29.03-.58 0-.86-.09a1.92 1.92 0 0 1-.74-.44c-.21-.2-.38-.44-.48-.71-.11-.27-.15-.56-.14-.85l.01-2.64z"/><path fill-rule="evenodd" d="M32.46 17.22h-1.22l-.98-1.67h-1.08v1.68h-1.06v-4.67h2.67c.21-.02.43 0 .63.07s.38.18.53.32c.16.14.28.31.37.51a1.59 1.59 0 0 1 .13.61c0 .15-.03.3-.07.45a1.53 1.53 0 0 1-.21.4c-.09.12-.2.22-.33.31-.12.09-.26.15-.41.19l1.03 1.8zm-1.49-2.58c.07-.04.14-.08.19-.14a.66.66 0 0 0 .14-.2c.03-.08.04-.16.04-.24s-.02-.16-.05-.24c-.04-.07-.08-.14-.14-.19a.57.57 0 0 0-.21-.13c-.07-.03-.15-.05-.23-.05h-1.53v1.24h1.55c.08 0 .16-.02.24-.05z"/></svg>