<svg xmlns="http://www.w3.org/2000/svg" xmlns:xlink="http://www.w3.org/1999/xlink" baseProfile="tiny-ps" width="110" height="30" xmlns:v="https://vecta.io/nano"><g fill="#00684b"><path d="M12 14.95c0-4.02 2.43-7.65 6.15-9.19s8-.69 10.84 2.16c2.85 2.85 3.7 7.13 2.15 10.85a9.95 9.95 0 0 1-9.2 6.14c-1.3 0-2.6-.26-3.8-.76-1.21-.5-2.31-1.24-3.23-2.16s-1.66-2.02-2.16-3.23c-.49-1.21-.75-2.5-.75-3.81m38.57-2.37v2.54a2.09 2.09 0 0 0 .02.56 2.55 2.55 0 0 0 .15.54c.06.17.15.34.25.5.1.15.22.3.36.43l.25.26.25-.26c.13-.13.25-.28.35-.44.1-.15.19-.32.25-.49.07-.18.11-.36.14-.54a2.63 2.63 0 0 0 .03-.56v-2.54h1.67v2.54c0 .36-.03.71-.11 1.06s-.19.69-.35 1.01c-.15.32-.34.62-.56.9s-.48.53-.76.75h-1.85c-.28-.22-.53-.47-.75-.75-.23-.28-.42-.58-.57-.9a5.03 5.03 0 0 1-.35-1.01c-.07-.35-.11-.7-.1-1.06v-2.54h1.68z"/><path d="M35.22 11.13h1.66v3.08h.46l1.78-3.08h1.93l-1.78 3.14c1.49.18 1.67.82 1.67 2.07v2.5h-1.69v-2.47c0-.71-.4-.72-1.09-.72h-1.28v3.19h-1.66v-7.71zm37.13 2.9h-1.59v4.81h-1.68v-4.81h-1.59v-1.45h4.86v1.45h0zm-26.41-1.45h1.66v6.26h-5.39v-6.26h1.67v4.89h2.06v-4.89h0zm14.14 1.37h-2.84v1.06h2.67v1.37h-2.67v1.09h2.91v1.37h-4.58v-6.26h4.51v1.37h0zm4.77.24v-1.61h1.67v1.72c0 1.41-.56 1.96-1.86 2.09v2.45h-1.67v-2.45c-1.66-.16-1.86-.81-1.86-2.09v-1.72h1.67v1.68c0 .71.4.72 1.1.72.71 0 .95-.06.95-.79"/><use xlink:href="#A"/><use xlink:href="#A"/><path d="M92.21 12.58h1.66v2.35h.5l1.68-2.35H98L96.22 15c1.46.18 1.64.83 1.64 2.07v1.77h-1.63v-1.77c0-.71-.4-.72-1.09-.72h-1.27v2.45h-1.66v-6.22z"/><path fill-rule="evenodd" d="M89.22 18.84L87.91 17h-.7v1.84h-1.67v-6.22h5.33v4.44h-1.02l1.32 1.84-1.95-.06zm0-4.81h-2.01v1.52h2.04l-.03-1.52z"/><path d="M78.44 12.58h-2v6.26h-1.67v-6.26h-2v-1.45h5.67v1.45h0zm3.27-1.44l.87-.87.87.87-.87.87-.87-.87zm-2.05-.01l.87-.87.88.87-.88.88-.87-.88z"/></g><path fill-rule="evenodd" d="M20.89 24.84l3.23-1.91-.62 1.86-.38.05-.37.03-.38.03-.38.01c-.38 0-.74 0-1.1-.07zm.67-9.77l-4.68-2.95c-.13-.09-.26-.17-.4-.24a3.25 3.25 0 0 0-.43-.18c-.14-.05-.29-.09-.44-.12-.16-.03-.31-.04-.46-.05h-1.57l3.11-1.9a1.6 1.6 0 0 1 .56-.22 1.68 1.68 0 0 1 .59.02c.19.05.38.13.54.25s.3.27.4.44l2.78 4.95zm-9.03.46l1.01-1.24c.81-1.02 1.56-1.99 3.79-.83l4.02 2.07h-8.82zm9.78-.44l2.77-4.97c.1-.18.24-.33.4-.45.17-.12.35-.21.55-.25.2-.05.41-.05.61-.02a1.62 1.62 0 0 1 .56.23l3.11 1.87h-1.56l-.47.05c-.16.03-.31.07-.46.12s-.3.11-.44.18-.28.15-.41.24l-4.66 3zm9.02.44h-8.8l4.03-2.07c2.23-1.16 2.98-.19 3.8.83l.97 1.24zM20 9.21c-.05-.08-.09-.16-.11-.25s-.04-.18-.04-.27.02-.19.04-.27a.85.85 0 0 1 .11-.26l1.95-2.51 1.91 2.51c.05.08.1.16.13.25a1.28 1.28 0 0 1 .05.27c0 .09 0 .18-.02.27a1.14 1.14 0 0 1-.09.26l-1.98 5.77L20 9.21zm2.49 12.88l1.65-1.01-.64 1.7-1.01-.69zm-1.6-5.94h2.06l-.98.78-1.08-.78zm.09 1.78l3.1-1.87-.53 1.6-1.51.89-1.06-.62zm-1.16-.12l3.11 1.78-1.03.69-1.55-.88-.53-1.59zm1.21 3.49l3.05-1.84-.49 1.47L22 22.01l-.97-.71zm-1.21-.11l3.08 1.87-.89.61-1.6-.89-.59-1.59zm2.67-2.39l1.64-1.02-.64 1.68-1-.66zm-2.67-2.77l1.68 1.01-.99.71-.69-1.72zm0 3.45l1.61.99-.95.65-.66-1.64zm1.6 4.39l-1 .63-.66-1.6 1.66.97z" fill="#c99c00"/><defs><path id="A" d="M82.58 16.64v-4.06h1.67v4.17c0 1.67-.79 2.14-2.66 2.14-2.5 0-2.77-.64-2.77-2.14v-4.17h1.67v4.14c0 .7.4.71 1.1.71s.95-.05.95-.79"/></defs></svg>