<svg xmlns="http://www.w3.org/2000/svg" baseProfile="tiny-ps" width="110" height="30" xmlns:v="https://vecta.io/nano"><path d="M42.37 23.76c-.15 0-.29-.02-.43-.05-.15-.03-.29-.08-.42-.14a2.08 2.08 0 0 1-.38-.22 1.75 1.75 0 0 1-.32-.29l-6.6-7.4-2.2 5.97c-.19.51-.58.93-1.08 1.16-.49.23-1.07.26-1.58.07a2.07 2.07 0 0 1-1.17-1.08c-.23-.5-.25-1.07-.06-1.59l3.39-9.21c.12-.34.33-.64.61-.87a2.11 2.11 0 0 1 .95-.46c.35-.06.72-.04 1.06.08a2 2 0 0 1 .88.58l5.34 6 .11-8.36c.04-.53.27-1.03.66-1.39A2.05 2.05 0 0 1 42.58 6c.53.01 1.04.22 1.42.59a2.07 2.07 0 0 1 .63 1.42l-.19 13.7a2.09 2.09 0 0 1-.16.78 2.15 2.15 0 0 1-.45.66 2.32 2.32 0 0 1-.67.45c-.25.1-.52.15-.79.16z" fill="#0075eb"/><g fill="#181c1f"><path d="M47.69 11.79c0-.06 0-.12.01-.17.01-.06.03-.12.05-.17s.05-.1.08-.15.06-.1.1-.14c.17-.17.38-.25.65-.25.06-.01.12 0 .18.01.05.01.11.02.17.04.05.02.1.05.15.08a.45.45 0 0 1 .14.1c.18.16.26.37.26.65v2.58l2.94-3.13.06-.06.06-.06c.03-.02.05-.04.07-.05.03-.02.05-.04.08-.05.03-.02.06-.04.1-.05.03-.02.07-.03.1-.04.04-.01.07-.01.11-.02.04 0 .07-.01.11 0a.97.97 0 0 1 .17.01c.05.01.11.03.16.05s.1.04.15.07a.64.64 0 0 1 .13.1.49.49 0 0 1 .12.13l.09.15c.02.06.04.11.05.17s.02.12.01.17c0 .04 0 .08-.01.12a.5.5 0 0 1-.02.12l-.05.11-.06.1c-.03.05-.07.09-.1.14-.04.04-.07.08-.11.13l-.11.12-.12.12-2.26 2.22 2.76 2.88.1.1c.03.03.06.07.09.1.03.04.06.07.08.11.03.04.06.07.08.11.03.04.05.07.07.11s.03.08.05.12c.01.04.02.09.02.13.01.04.01.08.01.13 0 .27-.09.48-.28.62l-.15.09-.16.06c-.05.02-.11.03-.17.04-.05.01-.11.01-.17.01-.04 0-.08 0-.12-.01s-.08-.01-.12-.03c-.04-.01-.08-.02-.12-.04l-.1-.06c-.04-.04-.08-.07-.12-.1s-.08-.07-.12-.1c-.03-.04-.07-.07-.11-.11-.03-.04-.07-.08-.1-.11l-3.09-3.34v3.04c0 .06 0 .11-.01.17-.02.05-.03.11-.05.16a.64.64 0 0 1-.08.14.69.69 0 0 1-.11.13c-.16.17-.38.26-.65.26-.05 0-.11 0-.17-.01s-.11-.03-.17-.05a1.01 1.01 0 0 1-.15-.07.71.71 0 0 1-.14-.1c-.17-.16-.26-.37-.26-.63v-6.9z"/><path fill-rule="evenodd" d="M57.85 19.6c-.14-.01-.28-.03-.42-.06l-.42-.11c-.13-.04-.26-.09-.4-.15l-.36-.18-.33-.22-.32-.25-.29-.28-.26-.31-.23-.34-.19-.36-.16-.38-.13-.42-.1-.43-.05-.44c-.02-.15-.02-.3-.02-.44l.02-.44.05-.44.1-.43.13-.42.16-.38.19-.36c.07-.12.15-.23.23-.34s.17-.21.26-.31.19-.19.29-.28.2-.18.31-.25c.11-.08.22-.15.34-.22.11-.07.23-.13.35-.18.14-.06.27-.11.41-.15.13-.05.27-.08.41-.11l.43-.07.43-.01c.28-.01.55.02.82.08a3.16 3.16 0 0 1 .79.25c.26.11.5.24.72.4.23.16.43.35.62.55a4.03 4.03 0 0 1 .26.32l.23.34.2.36.16.38.13.42.1.42c.03.14.04.29.06.43l.01.44c.01.14 0 .29-.01.44a3.56 3.56 0 0 1-.06.44 3.67 3.67 0 0 1-.09.43l-.14.42a2.87 2.87 0 0 1-.15.37c-.06.13-.13.25-.2.36l-.22.34a4.03 4.03 0 0 1-.26.32c-.09.1-.19.19-.29.28a3.76 3.76 0 0 1-.31.25c-.11.08-.22.15-.34.22l-.35.18c-.14.06-.27.11-.41.15l-.41.11c-.14.03-.29.05-.43.06-.14.02-.29.02-.43.02s-.29 0-.43-.02zm1.42-1.86a1.06 1.06 0 0 0 .2-.12c.06-.04.12-.09.18-.14s.12-.1.17-.16a1.43 1.43 0 0 0 .15-.18l.13-.2.12-.21.09-.23c.03-.07.05-.15.07-.23.05-.17.08-.34.11-.51a4.71 4.71 0 0 0 0-1.06l-.11-.51c-.02-.08-.05-.16-.08-.24-.02-.07-.06-.15-.09-.22l-.12-.22c-.04-.07-.09-.13-.13-.2l-.15-.18c-.06-.05-.11-.11-.17-.16s-.12-.1-.19-.14l-.19-.12c-.28-.15-.61-.23-.98-.23s-.7.08-.98.23l-.2.12c-.06.04-.12.09-.18.14s-.12.11-.17.16l-.15.18-.14.2c-.04.07-.08.15-.11.22-.04.07-.07.15-.1.22-.03.08-.05.16-.07.24a3.1 3.1 0 0 0-.11.51l-.04.53c0 .18.01.35.04.53.02.17.06.34.1.51.02.08.05.16.08.23.02.08.06.15.09.23.04.07.07.14.12.21.04.07.08.14.13.2a1.43 1.43 0 0 0 .15.18c.05.06.11.11.16.16a1.33 1.33 0 0 0 .19.14c.06.05.13.09.19.12.29.16.62.23 1 .23s.71-.07.99-.23z"/><path d="M63.09 11.84c0-.3.09-.53.26-.7.04-.04.09-.07.14-.1s.1-.06.15-.08c.06-.02.12-.03.17-.04.06-.01.12-.02.18-.01a.5.5 0 0 1 .17.01c.06.01.11.02.17.04.05.02.11.05.16.08s.09.06.14.1c.17.17.25.4.25.7v5.99h2.13.1c.03 0 .06.01.1.02.03 0 .06.01.1.02.03.01.06.02.09.04a.3.3 0 0 1 .08.04c.02.01.05.03.07.04l.06.06.06.06c.02.02.03.04.05.06.01.03.02.05.04.07.01.02.02.05.03.07l.03.08c.01.02.01.05.02.07a.22.22 0 0 1 .01.08.17.17 0 0 1 .01.07c.01.03.01.06.01.08l-.03.15a.58.58 0 0 1-.05.14c-.02.05-.05.09-.07.13a.4.4 0 0 1-.1.12c-.15.17-.35.24-.61.24h-2.98c-.3 0-.53-.08-.69-.26-.17-.17-.25-.41-.25-.71v-6.66z"/><path fill-rule="evenodd" d="M71.05 11.83c.03-.07.05-.14.09-.2a1.18 1.18 0 0 1 .11-.19c.04-.06.08-.11.13-.17l.16-.15c.05-.04.11-.09.17-.12a.72.72 0 0 1 .2-.09c.06-.03.13-.05.2-.06s.15-.01.22-.01c.07-.01.14 0 .21.01a1.08 1.08 0 0 1 .21.05c.07.03.14.05.2.09.07.04.12.08.18.12.05.05.11.1.15.16a1.15 1.15 0 0 1 .14.17 1.14 1.14 0 0 1 .1.19c.04.06.06.13.09.2l2.33 6.49.03.06c.01.03.02.05.02.07.01.02.01.04.02.07 0 .02.01.04.01.06l.02.18c0 .05 0 .11-.01.16s-.03.1-.05.15a.64.64 0 0 1-.08.14c-.03.04-.06.08-.1.12l-.13.09c-.04.03-.09.05-.14.07a.88.88 0 0 1-.15.05c-.05 0-.11.01-.16.01-.26 0-.45-.06-.58-.17-.04-.03-.07-.07-.1-.1-.02-.04-.05-.07-.08-.11l-.06-.12a.61.61 0 0 1-.05-.12l-.36-1.13h-3.32l-.36 1.12c-.01.04-.03.08-.05.12s-.04.08-.07.12c-.02.04-.05.08-.08.11-.02.04-.06.07-.09.1-.13.12-.32.18-.57.18-.06 0-.11-.01-.17-.02a.75.75 0 0 1-.16-.04c-.06-.02-.11-.05-.16-.08-.04-.03-.09-.06-.13-.1l-.11-.12c-.04-.05-.06-.1-.09-.15-.02-.05-.04-.11-.05-.16-.01-.06-.01-.11-.01-.17v-.06-.06c.01-.02.01-.04.01-.06.01-.02.01-.04.02-.06 0-.01 0-.03.01-.04 0-.01.01-.02.01-.04.01-.01.01-.02.02-.03 0-.01.01-.03.01-.04l2.4-6.49zm.13 4.33h2.27l-1.11-3.47h-.02l-1.14 3.47z"/><path d="M77.89 15.49l-2.26-3.17-.07-.13c-.02-.04-.04-.08-.05-.13-.02-.05-.03-.09-.03-.14-.01-.05-.01-.09-.01-.14 0-.06 0-.11.01-.17s.03-.11.05-.16c.02-.06.04-.11.07-.15.03-.05.07-.1.11-.14.16-.17.36-.25.62-.25.25 0 .57.11.74.36l1.72 2.49 1.72-2.49c.16-.25.41-.36.74-.36.32 0 .46.08.62.25a.71.71 0 0 1 .1.14c.03.04.05.09.07.15.03.05.04.1.05.16a.97.97 0 0 1 .01.17c0 .05 0 .09-.01.14 0 .05-.01.09-.03.14-.01.05-.03.09-.05.13-.02.05-.05.09-.07.13l-2.26 3.17v3.19c0 .05 0 .1-.01.16-.01.05-.02.1-.04.15-.02.06-.04.11-.07.15a.42.42 0 0 1-.09.14c-.14.18-.36.27-.68.27s-.55-.09-.69-.27c-.03-.04-.06-.09-.09-.14a.61.61 0 0 1-.07-.14c-.01-.06-.03-.11-.04-.16-.01-.06-.01-.11-.01-.16v-3.19z"/></g></svg>