<svg xmlns="http://www.w3.org/2000/svg" baseProfile="tiny-ps" width="110" height="30" xmlns:v="https://vecta.io/nano"><path d="M17.06 15.61c.04-.28.12-.56.23-.84a3.32 3.32 0 0 1 .4-.77c.16-.24.34-.47.55-.67.23-.2.48-.38.74-.53s.54-.28.83-.38.59-.17.89-.21.61-.05.91-.04c.28-.01.57-.01.85.03a4.75 4.75 0 0 1 .83.19c.27.09.53.2.78.34a4.33 4.33 0 0 1 .7.48c.19.19.36.4.51.63a3.85 3.85 0 0 1 .37.73c.09.25.16.51.2.78a3.15 3.15 0 0 1 .04.81c.02.29 0 .59-.04.88-.05.29-.12.57-.23.84a3.87 3.87 0 0 1-.39.79c-.16.24-.35.47-.55.68-.23.2-.48.38-.74.53-.26.16-.54.28-.82.38-.29.1-.58.17-.88.21s-.61.06-.91.04c-.29.02-.57.01-.86-.02a4.66 4.66 0 0 1-.84-.19 4.59 4.59 0 0 1-.79-.34c-.25-.14-.49-.3-.71-.49-.2-.19-.37-.41-.52-.64a3.81 3.81 0 0 1-.36-.73c-.1-.26-.17-.52-.21-.8a3.73 3.73 0 0 1-.03-.82c-.02-.29 0-.58.05-.87zm4.43-1.34c-.1 0-.21 0-.31.03-.1.02-.2.05-.29.1-.1.05-.18.11-.26.18s-.15.15-.2.23c-.07.13-.13.26-.18.4a2.77 2.77 0 0 0-.12.41c-.03.14-.05.29-.06.43-.01.15-.01.29 0 .43a2.41 2.41 0 0 0 0 .38c.01.13.03.25.05.38a4.94 4.94 0 0 0 .11.36l.16.34c.06.08.13.15.2.21a2.13 2.13 0 0 0 .25.16.84.84 0 0 0 .27.08c.1.02.2.03.29.02.11.01.21 0 .31-.02s.2-.05.29-.1a.78.78 0 0 0 .26-.17c.08-.07.15-.15.21-.23a2.53 2.53 0 0 0 .18-.37c.05-.12.09-.25.12-.39a2.57 2.57 0 0 0 .06-.4c.01-.14.01-.27 0-.41.01-.13.01-.27.01-.4-.01-.14-.03-.27-.06-.41-.02-.13-.06-.26-.1-.39s-.1-.26-.16-.38c-.06-.08-.12-.15-.2-.21-.08-.07-.16-.12-.25-.16a1.31 1.31 0 0 0-.28-.09c-.1-.01-.2-.02-.3-.01zm10.95 5.51v.03c0-.01.01-.01.02-.02l-.02-.01zm-.19.19l-.23.15-.24.12c-.09.04-.17.07-.26.1l-.3.08-.31.05c-.1.02-.2.03-.3.03-.11.01-.21.01-.32.01-.23.01-.46 0-.68-.04-.23-.03-.45-.09-.67-.17a3.5 3.5 0 0 1-.61-.31c-.19-.13-.37-.27-.53-.43-.16-.18-.3-.37-.41-.57-.12-.2-.22-.42-.3-.64a3.98 3.98 0 0 1-.17-.68 4.1 4.1 0 0 1-.03-.7c-.02-.32 0-.64.05-.95.05-.32.14-.63.25-.93.12-.29.27-.58.44-.85.18-.26.38-.51.61-.73.24-.22.5-.42.77-.58a4.37 4.37 0 0 1 .87-.42c.3-.11.61-.19.93-.24a5.16 5.16 0 0 1 .96-.06h.47c.18 0 .37.04.58.07 0-.32.05-.64.06-1.03.02-.39 0-.78 0-1.25h3l-.34 5.57-.24 4.71h-2.86v-.47l-.19.16zm.52-5.65l-.1-.03-.1-.03c-.03-.01-.06-.02-.1-.02-.03-.01-.07-.02-.1-.02s-.06 0-.09-.01h-.09-.09c-.03.01-.06.01-.08.01-.15-.01-.29 0-.43.03-.14.02-.28.06-.41.12a1.36 1.36 0 0 0-.37.21 1.75 1.75 0 0 0-.32.29c-.09.12-.18.25-.25.39a2.56 2.56 0 0 0-.17.43c-.05.15-.08.31-.1.46-.02.16-.03.31-.02.47a1.93 1.93 0 0 0 0 .34 1.91 1.91 0 0 0 .06.33c.03.11.07.22.11.33.05.1.11.2.17.29.05.08.11.15.18.2.07.06.15.11.23.15a.63.63 0 0 0 .25.09c.09.02.18.03.28.03s.2 0 .29-.02a1.42 1.42 0 0 0 .29-.1c.09-.04.17-.1.25-.16s.15-.14.21-.22a2.21 2.21 0 0 0 .18-.34c.05-.12.1-.24.13-.37.04-.12.06-.25.08-.38.02-.12.02-.25.02-.38l.1-2.06-.01-.03zm11.08 5.87c-.5.11-.97.18-1.43.24l-.32.03-.33.03-.32.01c-.11.01-.22.01-.32.01-.28.02-.56.01-.83-.02a3.93 3.93 0 0 1-.81-.18 4.22 4.22 0 0 1-.76-.32 4.51 4.51 0 0 1-.68-.46 4.16 4.16 0 0 1-.5-.61 3.73 3.73 0 0 1-.35-.69c-.09-.25-.16-.5-.2-.76a3.4 3.4 0 0 1-.03-.78c-.02-.3 0-.6.04-.9s.12-.59.22-.88c.1-.28.23-.56.38-.82.16-.25.34-.5.55-.72a4.33 4.33 0 0 1 .71-.55c.25-.15.52-.28.8-.39a5.28 5.28 0 0 1 .87-.22c.3-.04.6-.05.9-.04a4.21 4.21 0 0 1 .71.01c.24.03.47.07.7.14s.46.15.67.26a4.67 4.67 0 0 1 .6.38c.16.16.3.33.41.52.12.18.22.38.3.58.07.21.13.42.16.64a3.64 3.64 0 0 1 .01.66c.01.05.01.11.01.17v.17.17c0 .05 0 .11-.01.17 0 .26-.06.53-.1.84h-4.78v.08.17c0 .1 0 .19.02.28a1.07 1.07 0 0 0 .09.27c.04.09.09.17.15.24.06.08.13.14.21.19.11.07.23.12.35.16.11.05.24.08.36.11.13.03.25.04.38.05a2.41 2.41 0 0 0 .38 0h.26l.26-.01.27-.02.26-.03c.09-.02.18-.03.27-.04l.27-.06c.09-.01.18-.03.27-.05a2.68 2.68 0 0 1 .27-.07l-.33 2.04h-.01zm-1.68-4.85v-.07c.01-.08.01-.16 0-.25 0-.08-.02-.17-.04-.25l-.07-.24c-.03-.08-.07-.15-.11-.23l-.12-.14c-.05-.04-.1-.08-.16-.11s-.12-.05-.18-.07c-.06-.01-.13-.02-.19-.01-.07 0-.14 0-.22.02a.68.68 0 0 0-.2.07.76.76 0 0 0-.19.12.71.71 0 0 0-.15.15c-.06.07-.11.15-.15.23a1.15 1.15 0 0 0-.12.25c-.03.08-.06.17-.08.26s-.03.18-.04.27h2.02z" fill-rule="evenodd" fill="#231f20"/><path d="M50.34 20.29c-.23.04-1.3.13-1.48.15-.05.01-.1.02-.14.02-.05.01-.1.01-.15.01-.05.01-.09.01-.14.01h-.15c-.16.01-.33.01-.5-.01s-.33-.06-.49-.11c-.17-.05-.32-.11-.47-.19s-.29-.17-.43-.28c-.11-.1-.2-.21-.29-.33-.08-.13-.16-.26-.21-.4a1.62 1.62 0 0 1-.12-.43c-.02-.15-.03-.3-.02-.45-.01-.15 0-.31.02-.46.02-.16.06-.31.12-.46.05-.14.13-.28.21-.41.09-.14.18-.26.29-.37l.5-.34c.17-.11.35-.2.53-.28s.37-.15.56-.21l.59-.13.41-.09c1.12-.23 1.68-.52 1.68-.87 0-.04 0-.08-.01-.12-.01-.03-.02-.07-.04-.1-.02-.04-.04-.07-.07-.09-.03-.03-.06-.05-.09-.07-.06-.03-.12-.05-.17-.06-.06-.02-.12-.03-.18-.04a1.1 1.1 0 0 0-.18-.02h-.18l-.36.01-.36.03-.35.05-.35.07-.39.1-.37.11-.37.12-.37.15.34-2.24c.12-.04.24-.07.37-.1l.36-.08c.12-.03.24-.05.37-.07l.37-.05.4-.05.4-.03.41-.02.4-.01h.65l.64.09c.21.04.42.1.63.17l.6.24c.13.08.24.18.35.29a1.64 1.64 0 0 1 .26.37c.07.13.13.28.16.42a1.78 1.78 0 0 1 .03.46v.38.45l-.18 3.96v.35.97h-3.02l.09-1.3.05-.65.06-1.37-.33.11-.49.14-.65.15c-.06.01-.12.02-.17.04-.06.02-.12.04-.17.07-.06.02-.11.05-.16.08-.05.04-.1.07-.14.11-.04.03-.07.07-.1.1-.02.04-.05.08-.07.12s-.03.09-.04.13c-.01.05-.01.09-.01.14-.01.04 0 .08.01.12 0 .04.02.08.03.12.02.04.04.07.07.11.02.03.05.06.09.09.03.03.07.05.12.07.04.03.08.04.13.06l.13.03a.38.38 0 0 0 .15 0h.1c.03 0 .06 0 .1-.01.03 0 .06 0 .1-.01.03 0 .06-.01.1-.01a8.82 8.82 0 0 0 1.05-.13l-.11 1.67.04.01z" fill="#231f20"/><path fill-rule="evenodd" d="M57.9 20.32h-2.98l.34-5.18.16-5.13h3.04c-.04.37-.04.75-.04 1.15s-.05.83-.07 1.29l.22-.06.23-.06.23-.05.24-.04.2-.03.21-.02.21-.01c.07 0 .13-.01.2-.01.26-.01.51.01.76.05.25.05.49.11.73.21.23.09.46.2.67.34a3.87 3.87 0 0 1 .59.48 4.81 4.81 0 0 1 .47.62c.13.23.25.46.34.71s.15.5.19.76.05.52.04.78c.01.29 0 .57-.03.86a4.75 4.75 0 0 1-.19.83 6 6 0 0 1-.33.79 4.16 4.16 0 0 1-.47.71c-.16.2-.34.37-.54.53a3.25 3.25 0 0 1-.65.38c-.23.11-.47.18-.72.23a3.81 3.81 0 0 1-.75.07c-.12 0-.23-.01-.35-.02l-.34-.04-.34-.09-.32-.13a1.82 1.82 0 0 1-.27-.15 2.35 2.35 0 0 1-.25-.19 2.39 2.39 0 0 1-.22-.23c-.06-.08-.13-.16-.18-.25v.88l-.03.02zm.3-5.83c-.01.07-.03.13-.04.2-.01.06-.01.13-.02.19-.01.07-.02.13-.02.2-.01.06-.01.13-.01.19v1.04a2.67 2.67 0 0 0 0 .4c0 .13.02.26.05.39s.06.26.11.38c.04.12.09.25.15.36.06.08.12.16.19.22.08.07.16.12.25.16a.88.88 0 0 0 .27.1.94.94 0 0 0 .29.01c.1.01.21-.01.3-.03a1.02 1.02 0 0 0 .29-.11c.09-.05.17-.11.25-.18a2.2 2.2 0 0 0 .2-.23 2.64 2.64 0 0 0 .18-.38 2.52 2.52 0 0 0 .12-.39 2.07 2.07 0 0 0 .07-.41l.01-.42a1.61 1.61 0 0 0-.01-.38 2.5 2.5 0 0 0-.06-.38l-.13-.36-.19-.33c-.07-.08-.15-.15-.24-.22-.09-.06-.19-.11-.29-.15a1.68 1.68 0 0 0-.32-.09c-.1-.02-.21-.02-.32-.01h-.14c-.05 0-.1.01-.14.01-.05.01-.09.02-.14.02l-.14.03c-.04.01-.09.02-.13.04-.05.01-.09.02-.14.04-.04.01-.08.03-.13.04l-.12.06v-.01z" fill="#231f20"/><path d="M68.47 20.37l-.64.11c-.05 0-.1.01-.15.01-.05.01-.1.01-.14.02h-.15c-.05 0-.1.01-.15.01-.16.01-.33 0-.5-.02s-.33-.06-.49-.11a2.72 2.72 0 0 1-.47-.19c-.14-.08-.29-.17-.42-.27-.11-.1-.21-.22-.29-.34a1.53 1.53 0 0 1-.21-.4 1.52 1.52 0 0 1-.12-.43c-.03-.15-.03-.3-.03-.44 0-.16 0-.32.03-.47a1.66 1.66 0 0 1 .12-.45 1.65 1.65 0 0 1 .21-.42c.08-.13.18-.26.29-.37l.49-.34.54-.28c.18-.08.37-.15.56-.2.19-.06.39-.1.59-.13l.4-.09c1.16-.25 1.74-.54 1.74-.88 0-.04 0-.09-.01-.13s-.03-.08-.05-.12-.05-.07-.08-.1c-.04-.02-.07-.05-.11-.06-.06-.03-.12-.05-.17-.06-.06-.02-.12-.03-.18-.04a1.1 1.1 0 0 0-.18-.02h-.18l-.36.01-.36.03-.36.05-.35.07-.38.1c-.13.03-.25.07-.38.11-.12.03-.24.08-.36.12l-.37.15.39-2.24a4.83 4.83 0 0 1 .36-.1l.37-.08c.12-.03.24-.05.37-.07l.37-.05.4-.05.4-.03.41-.02.4-.01h.65l.64.09a4.37 4.37 0 0 1 .62.17 5.36 5.36 0 0 1 .6.24 1.99 1.99 0 0 1 .36.29 1.64 1.64 0 0 1 .26.37 1.26 1.26 0 0 1 .16.42c.03.15.05.3.04.46v.38.45l-.18 3.96c-.01.03-.01.06-.01.09v.08.09c0 .03 0 .06.01.09v.97h-3.09l.1-1.3.05-.65.06-1.37-.34.11-.49.14-.65.15c-.06.01-.12.02-.18.04-.05.02-.11.04-.16.07-.06.02-.11.05-.16.08l-.15.11c-.03.03-.06.07-.09.1-.02.04-.05.08-.07.12-.01.04-.03.09-.04.13-.01.05-.01.09-.01.14 0 .04 0 .08.01.12s.02.08.04.12a.3.3 0 0 0 .06.11c.02.03.05.06.08.09.04.03.08.05.12.07.04.03.09.04.13.06l.14.03c.05 0 .1.01.14 0h.1c.04 0 .07 0 .11-.01.03 0 .06 0 .1-.01.03 0 .06-.01.1-.01.16 0 .35-.06.57-.1l-.43 1.73zm5.34-.07l.29-3.82.09-4.09h2.91v.98l.24-.28.27-.25c.1-.08.2-.15.31-.22.1-.07.21-.13.32-.18.12-.05.24-.09.37-.13s.25-.07.38-.09a2.57 2.57 0 0 1 .4-.06c.13-.01.26-.01.39-.01.2-.01.4-.01.59 0a3.84 3.84 0 0 1 .59.11c.19.05.38.12.56.2.18.09.35.19.51.3a2.18 2.18 0 0 1 .33.42c.1.15.18.31.24.48.06.16.1.34.13.51.02.18.02.36.01.53l-.1 2.35-.13 3.23h-3l.15-2.25.06-1.62c.01-.13.01-.26.01-.39l-.04-.39c-.02-.13-.05-.26-.09-.39-.03-.12-.07-.25-.12-.37a1.46 1.46 0 0 0-.16-.19c-.06-.05-.13-.1-.21-.13a.63.63 0 0 0-.23-.08c-.08-.02-.16-.02-.25-.01-.15 0-.31.03-.46.08-.14.05-.28.13-.4.22-.13.1-.23.22-.32.35a1.63 1.63 0 0 0-.18.43c-.25.72-.39 2.3-.41 4.74l-3.05.02z" fill="#231f20"/><path fill-rule="evenodd" d="M83.93 20.3c.14-1.05.25-2.47.35-4.24l.18-6.05h3.08l-.13 1.47-.12 1.7-.3 7.12h-3.06zm3.29-4.32l1.3-1.72 1.24-1.87H93l-2.63 3.54 2.46 4.37h-3.4l-1.01-2.12-1.2-2.2z" fill="#231f20"/></svg>