<svg xmlns="http://www.w3.org/2000/svg" baseProfile="tiny-ps" width="110" height="30" xmlns:v="https://vecta.io/nano"><path d="M82.47 17.89l-.07.05-.06.06-.05.06-.06.06c-.04.05-.07.1-.1.16-.03.05-.05.11-.07.17-.03.05-.04.11-.06.17l-.03.18c-.01.07-.01.14-.01.2v.21c.01.06.01.13.02.2.02.06.03.13.05.19.01.08.04.15.06.22s.05.14.08.21a.95.95 0 0 0 .09.21c.03.07.06.14.1.2a1.59 1.59 0 0 0 .13.22c.04.07.09.14.14.21l.15.2c.06.06.11.12.17.19l1.76 1.91 1.32-.99.15-.13c.04-.05.08-.09.11-.15.04-.05.07-.1.1-.16s.05-.12.07-.18l.05-.21.02-.21a.81.81 0 0 0 0-.22c0-.07-.01-.15-.02-.22l-.06-.25c-.02-.09-.05-.17-.08-.25-.02-.09-.06-.17-.09-.25l-.12-.23a2.15 2.15 0 0 0-.14-.26 2.13 2.13 0 0 0-.16-.25l-.18-.24-.2-.22-.1-.1-.1-.1c-.01-.01-.02-.02-.03-.02l-.03-.03c0-.01-.01-.02-.02-.02-.01-.01-.02-.02-.03-.02l-.1-.09L84 19.49l-1.5-1.59M81.26 6l-1.12 2.84-.09.27c-.03.09-.05.19-.07.28l-.05.28-.02.29v.29c0 .1.01.19.02.29l.04.29.06.28c.02.09.05.18.08.28l.09.27.11.27.13.26.15.25.16.24.18.23.19.21.1.1.1.09.09.08.1.07.95-1.68 1.72 1.73.09-.08.08-.1c.01 0 .02-.01.03-.02 0-.01.01-.01.02-.02 0-.01.01-.02.01-.03.01 0 .01-.01.02-.02l.08-.1.15-.26c.04-.08.08-.17.11-.27.04-.09.07-.18.09-.27.03-.1.05-.19.06-.29.02-.11.03-.22.04-.33l.02-.33c0-.11-.01-.22-.02-.33l-.04-.33-.07-.35c-.02-.12-.06-.23-.09-.35l-.13-.34c-.04-.11-.09-.22-.15-.32-.05-.11-.1-.21-.16-.31l-.19-.29-.21-.27-.24-.25L81.26 6zm-2.15 7.04h-.08c-.03.01-.06.01-.08.01-.03.01-.06.01-.08.02l-.08.03c-.03 0-.05.01-.07.02-.03.01-.05.02-.07.03-.03.01-.05.02-.07.04-.02.01-.04.03-.06.04-.03.02-.05.03-.07.05s-.04.03-.06.05c-.01.02-.03.04-.05.06s-.03.04-.05.06-.03.05-.05.07c-.01.03-.03.05-.04.08-.02.02-.03.05-.04.07a.3.3 0 0 0-.04.08l-.62 1.54 1.54 1.68c.02.03.05.06.08.09.02.03.05.06.08.08.03.03.06.06.09.08.03.03.06.06.09.08a.27.27 0 0 0 .08.07c.03.02.06.05.09.07l.09.06.09.06c.03.02.06.03.09.05s.06.03.09.05c.03.01.06.03.09.04s.06.03.09.04l.08.03.09.03c.03 0 .06.01.09.02.03 0 .06.01.09.01.03.01.06.01.08.01h.08.08c.03 0 .06 0 .08-.01h.08c.02-.01.05-.01.08-.02.02 0 .05-.01.07-.01.02-.01.05-.02.07-.03.03-.01.05-.02.07-.03.03-.01.05-.02.07-.03.02-.02.05-.03.07-.04.02-.02.04-.03.06-.05.02-.01.04-.03.06-.05l.06-.06c.02-.02.04-.04.05-.06.02-.02.04-.04.06-.07l.04-.07.04-.08s0-.01.01-.02v-.03c-.01-.01-.01-.02-.01-.02 0-.01 0-.02.01-.02v-.04c-.01-.01-.01-.02-.01-.02l-1.35-1.52.75-1.37-.07-.1c-.01-.01-.02-.02-.02-.03-.01-.01-.02-.02-.02-.03-.01 0-.02-.01-.03-.02 0-.01-.01-.01-.02-.02l-.06-.06-.08-.09c-.04-.03-.07-.07-.1-.1a.9.9 0 0 1-.1-.09l-.11-.09c-.03-.03-.07-.05-.1-.08l-.1-.07c-.04-.03-.07-.05-.11-.07l-.1-.06-.11-.06c-.03-.01-.06-.03-.1-.04-.03-.01-.06-.03-.09-.04l-.11-.03-.1-.03c-.03-.01-.06-.01-.09-.02s-.06-.01-.09-.01c-.03-.01-.07-.01-.1-.01h-.09m8.22.02c-.05 0-.1 0-.15.01-.05 0-.1.01-.15.01l-.15.03a.32.32 0 0 0-.14.03l-.14.03c-.05.01-.09.03-.14.04-.04.02-.08.03-.13.05l-.13.06-.12.06c-.04.02-.08.05-.12.07-.04.03-.08.05-.11.08-.04.03-.08.05-.11.08l-.11.09-.1.1a.9.9 0 0 0-.09.1.7.7 0 0 0-.08.1l-.08.11c-.01 0-.01.01-.02.02 0 .01-.01.02-.02.03 0 .01-.01.02-.01.03-.01.01-.01.02-.02.02l-.06.11-.06.12 1.85 1.85-1.37 1.41.09.12.03.03c0 .01.01.02.02.03s.02.02.02.03l.03.03.09.11.11.11c.04.03.07.07.12.11l.12.11.12.11c.05.03.09.06.14.1l.12.09.14.09c.04.03.08.06.13.08.05.03.09.06.14.08.04.03.09.05.14.07.05.03.09.05.14.07l.15.06c.04.02.09.04.14.06.05.01.1.03.15.04.04.02.09.03.14.04.05.02.1.03.15.04l.15.03c.05.01.09.01.14.02s.09.01.14.02c.05 0 .1 0 .14.01h.15.14c.04 0 .09-.01.14-.01.04-.01.09-.01.14-.02.04-.01.09-.01.14-.02l.13-.03c.05-.01.1-.03.14-.04.05-.01.09-.03.13-.04l.14-.06.12-.06a.54.54 0 0 0 .13-.07c.04-.02.08-.05.12-.07.04-.03.08-.06.12-.08L93 16.93l-2.96-2.74-.15-.13c-.06-.04-.11-.09-.16-.13l-.17-.12c-.05-.04-.11-.07-.17-.11-.05-.03-.1-.07-.16-.1-.05-.03-.11-.06-.17-.09s-.11-.06-.17-.08l-.18-.08-.17-.06c-.05-.02-.11-.03-.17-.05-.05-.02-.11-.03-.17-.05l-.17-.03-.17-.03-.17-.02c-.06 0-.12-.01-.17-.01-.06 0-.12-.01-.17 0" fill="#00c4b3"/><g fill="#231f20"><path d="M22.84 13.7h-1.71l-.99 5.03h-1.46l.99-5.03H18l.26-1.33h4.84l-.26 1.33zm-.8 3.81c0-.05 0-.1.01-.16 0-.05 0-.11.01-.16 0-.05.01-.11.01-.16l.03-.16.48-2.33h1.44l-.41 2.11c-.01.04-.02.07-.02.1-.01.03-.01.07-.02.1 0 .03 0 .07-.01.1v.1c-.01.08-.01.16.02.24a.55.55 0 0 0 .12.21.66.66 0 0 0 .2.14c.08.03.16.04.25.03.45 0 .84-.33.98-1.11l.4-2.04h1.4l-.83 4.19h-1.37l.13-.68h0c-.06.12-.15.23-.24.33-.1.1-.21.19-.33.26s-.25.13-.38.16c-.13.04-.27.06-.41.06a1.32 1.32 0 0 1-.56-.04c-.18-.06-.35-.15-.48-.28-.14-.13-.25-.28-.32-.46-.08-.17-.11-.36-.1-.55zm1.57-5.04h1.15l-.25 1.22h-1.14l.24-1.22zm1.74 0h1.14l-.24 1.22H25.1l.25-1.22zm2.49 2.07h1.37l-.18.84h0c.05-.15.13-.29.23-.41.1-.13.22-.24.35-.32.14-.09.29-.16.44-.2s.31-.05.47-.04c.02-.01.04-.01.05-.01h.05.05c.01 0 .03 0 .05.01l-.28 1.44h-.22c-.85 0-1.32.33-1.51 1.32l-.31 1.55h-1.37l.81-4.18zm5.71 2.01l1.44 2.18h-1.73l-1.08-1.91-.38 1.91h-1.36l1.22-6.36h1.36l-.68 3.81 1.56-1.64h1.84l-2.19 2.01zm2.39-2.01h1.36l-.83 4.19h-1.36l.83-4.19zm1.59-.78h-1.5l.28-1.36h1.49l-.27 1.36zm5.11.78l-3.87 6.01h-1.51l1.53-2.31-1.13-3.7h1.51l.55 2.29 1.42-2.29h1.5z"/><path fill-rule="evenodd" d="M43.57 16.96c.07.49.35.75.95.75a2.07 2.07 0 0 0 .35-.03c.11-.01.22-.04.33-.07s.22-.07.33-.11l.3-.16.43 1.07c-.14.08-.28.14-.43.2a3.5 3.5 0 0 1-.46.14 3.55 3.55 0 0 1-.47.09c-.15.02-.31.03-.47.03-1.37 0-2.22-.76-2.22-2.02-.01-.33.05-.66.17-.97a2.37 2.37 0 0 1 .55-.82c.24-.23.52-.4.84-.52.31-.11.64-.16.97-.13 1.21 0 2.05.6 2.05 1.69 0 .07-.01.15-.02.22l-.03.22a1.6 1.6 0 0 1-.05.21l-.06.21h-3.06zm1.14-1.58a1.27 1.27 0 0 0-.34.05 1.01 1.01 0 0 0-.31.16c-.1.07-.18.16-.24.25-.07.1-.12.2-.15.31h1.73v-.04-.04-.04c0-.01-.01-.03-.01-.04 0-.38-.28-.61-.68-.61z"/><path d="M51.87 13.7l-.26 1.29h2.33l-.25 1.25h-2.33l-.49 2.46h-1.46l1.26-6.36h4.13l-.25 1.33-2.68.03zm3.22.84h1.36l-.82 4.19h-1.37l.83-4.19zm1.59-.78h-1.5l.28-1.36h1.46l-.24 1.36zm.69.78h1.36l-.13.63h0c.08-.12.18-.23.29-.32a1.72 1.72 0 0 1 .35-.25 1.93 1.93 0 0 1 .4-.15 2.1 2.1 0 0 1 .43-.05 1.28 1.28 0 0 1 .55.06c.18.06.33.16.47.29a1.2 1.2 0 0 1 .29.47c.06.17.08.36.06.55 0 .06-.01.13-.01.2a1.49 1.49 0 0 1-.02.21c0 .06-.01.13-.02.2l-.03.2-.45 2.16h-1.36l.39-2.05.03-.12a.5.5 0 0 0 .02-.12c.01-.04.01-.08.01-.13.01-.04.01-.08.01-.12 0-.46-.25-.65-.68-.65s-.82.24-.98 1.08l-.42 2.11h-1.36l.8-4.2z"/><path fill-rule="evenodd" d="M61.76 15.99a2.27 2.27 0 0 1 .47-.81c.22-.24.48-.43.77-.56.29-.12.6-.19.92-.19.15-.01.3 0 .45.03a1.75 1.75 0 0 1 .43.17 1.35 1.35 0 0 1 .35.28c.11.11.19.24.26.38l.15-.73h1.36l-.83 4.2h-1.37l.11-.56c-.24.3-.57.52-.94.62s-.76.07-1.12-.07-.66-.4-.86-.73-.29-.71-.25-1.09c-.03-.32 0-.64.1-.94zm3.36.55a.92.92 0 0 0-.07-.36 1.02 1.02 0 0 0-.21-.3.94.94 0 0 0-.32-.19.89.89 0 0 0-.36-.04c-.15 0-.29.02-.42.08-.13.05-.25.13-.35.23s-.18.23-.23.36-.07.27-.06.41c-.01.13.02.25.07.37.05.11.12.21.22.29.09.09.2.15.32.19.11.03.24.04.36.03a1.15 1.15 0 0 0 .41-.08c.13-.05.24-.13.34-.23s.18-.22.23-.35a1.14 1.14 0 0 0 .07-.41z"/><path d="M67.66 14.54h1.36l-.13.63h0c.09-.12.18-.23.29-.32a1.72 1.72 0 0 1 .35-.25c.13-.07.27-.12.41-.15s.28-.05.42-.05a1.28 1.28 0 0 1 .55.06 1.24 1.24 0 0 1 .46.29c.14.13.24.29.3.47.06.17.08.36.06.55 0 .06 0 .13-.01.2l-.01.21-.03.2-.03.2-.45 2.16h-1.36l.39-2.05.03-.12a.5.5 0 0 0 .02-.12c.01-.04.01-.08.02-.13v-.12c0-.46-.25-.65-.68-.65s-.83.24-.98 1.08l-.41 2.11h-1.37l.8-4.2zm6.1 3.21c.2 0 .28-.07.28-.18s-.06-.15-.25-.26l-.59-.33c-.12-.05-.23-.12-.33-.2-.11-.08-.19-.18-.27-.29-.07-.11-.13-.23-.17-.35-.03-.13-.05-.26-.05-.39 0-.82.58-1.36 1.64-1.36.16 0 .32.01.48.03a3.89 3.89 0 0 1 .47.09l.46.14c.15.05.3.12.44.19l-.51 1.03c-.1-.06-.2-.1-.3-.15l-.31-.11c-.11-.03-.22-.05-.33-.07s-.22-.03-.33-.04c-.22 0-.31.05-.31.16s.09.17.3.28l.6.3c.12.05.24.11.34.19a1.44 1.44 0 0 1 .27.28c.07.11.13.22.16.35a.97.97 0 0 1 .05.38c0 .94-.68 1.42-1.74 1.42-.18 0-.36-.01-.54-.04s-.36-.08-.54-.13c-.17-.06-.34-.13-.5-.22l-.47-.29.69-1.01c.1.08.2.15.31.21a1.71 1.71 0 0 0 .33.17c.11.05.23.09.35.12a2.21 2.21 0 0 0 .37.08z"/></g></svg>