<svg xmlns="http://www.w3.org/2000/svg" baseProfile="tiny-ps" width="110" height="30" fill-rule="evenodd" xmlns:v="https://vecta.io/nano"><path d="M28.15 14.41c.86.17 1.98.95 1.81 2.24-.26 1.82-1.73 2.42-4.32 2.42H17l1.21-6.48c.26-1.21 1.3-2.33 2.94-2.33h6.05c2.5 0 3.37 1.38 3.19 2.33-.17 1.3-1.29 1.56-2.24 1.82zm-1.3-3.29s-2.07-.26-3.37 1.39c-.26.43-2.16 2.42-3.46 3.97.26-1.3.78-3.97 1.21-4.58.44-.52 1.04-.6 1.04-.6s-2.33-.7-3.02 2.07l-1.04 4.58s2.07.17 3.11-.95c.52-.52 2.77-3.28 3.37-4.06 1.3-1.64 2.16-1.82 2.16-1.82z" fill="#fac34f"/><path d="M38.17 18.99h-1.56l-1.64-8.82h1.9l.87 6.92 3.54-6.92h1.73l-4.84 8.82zm8.38.08c-.69.09-1.55.09-2.59.09-1.99 0-3.2-.87-3.03-1.99.26-1.55 2.25-2.07 4.76-2.24l.08-.35c.18-.86-.52-1.12-1.38-1.12-.6 0-1.38.08-2.16.43l.52-1.04c.6-.26 1.12-.34 2.16-.34 1.55 0 2.85.6 2.5 2.24l-.86 4.32zm-3.89-1.98c-.17.86.52 1.2 1.38 1.2h1.04l.52-2.76c-1.64.17-2.76.43-2.94 1.56zm11.58 1.9h-1.99l-1.98-3.29-.61 3.29h-1.73l1.64-8.82h1.73l-1.03 5.36 3.02-2.94h1.81l-3.19 2.94 2.33 3.46zm.69 0l1.21-6.31h1.56l-1.21 6.31h-1.56zm8.64-8.04c-1.64-.26-1.9.52-2.07 1.3l-.09.43h1.3l-.17.86h-1.3l-1.04 5.45h-1.64l1.04-5.45h-1.13l.18-.86h1.12l.17-.78c.26-1.55 2.42-2.16 4.41-1.73 0 0-.35.09-.52.26-.26.26-.26.43-.26.52zm4.67 3.28c.95.18 2.07 1.04 1.9 2.34-.26 1.9-1.82 2.5-4.41 2.5-1.29 0-2.16 0-3.02-.08l1.47-7.69c.17-1.04 1.81-1.3 3.11-1.3 2.59 0 3.54 1.38 3.37 2.42-.17 1.38-1.3 1.73-2.42 1.81zm-3.46 3.98h1.21c1.3 0 2.16-.52 2.42-1.56.17-1.12-.43-1.98-2.5-1.9h-.52l-.61 3.46zm2.34-7.26c-.44 0-.78.09-1.13.17l-.52 2.77h.69c1.91.08 2.6-.52 2.77-1.38.17-1.04-.52-1.65-1.81-1.56zm9.15 8.04c-.69.08-1.55.08-2.59.08-1.99 0-3.19-.86-3.02-1.98.26-1.56 2.24-2.08 4.75-2.25l.09-.35c.17-.86-.52-1.12-1.39-1.12a5.44 5.44 0 0 0-2.16.43l.52-.95c.61-.26 1.13-.34 2.16-.34 1.56 0 2.85.6 2.51 2.24l-.87 4.24zm-3.8-1.9c-.17.86.52 1.2 1.38 1.2h1.04l.52-2.76c-1.73.17-2.85.43-2.94 1.56zm11.24 1.98h-1.65l.87-4.49c.08-.52-.18-1.04-1.3-1.04-.6 0-.95.18-1.29.26l-.96 5.27h-1.72l1.12-5.96c.78-.35 1.73-.52 3.02-.52 2.25 0 2.86.87 2.68 1.9l-.77 4.58zm6.48-6.48H92l-3.2 2.94 2.34 3.46h-1.99l-1.99-3.2-.6 3.2h-1.73l1.64-8.82h1.73l-.95 5.36 2.94-2.94z" fill="#010101"/></svg>