<svg xmlns="http://www.w3.org/2000/svg" baseProfile="tiny-ps" width="110" height="30" xmlns:v="https://vecta.io/nano"><g fill="#ec1c24"><path fill-rule="evenodd" d="M26.25 9.24v4.9c0 .06 0 .12-.01.18s-.03.11-.06.17a.42.42 0 0 1-.09.14.8.8 0 0 1-.13.13c.04.02.08.05.11.09.04.03.07.07.09.11a1.63 1.63 0 0 0 .06.13.4.4 0 0 1 .03.15v4.47l-1.48 1.15-1.11.88-.76.56v-2.66l.38-.29v-1.24l-.38.3v-2.66l.38-.29v-1.24l-.38.3v-2.66l.76-.59 1.09-.88 1.5-1.15zm-.54 7.39c0-.2-.2-.24-.39-.09l-.57.44-.95.73v1.26l.94-.77.67-.52c.2-.16.3-.26.3-.5v-.55zm0-3.92c0-.21-.2-.24-.39-.09l-.57.44-.95.74v1.24l.94-.74.67-.52c.2-.16.3-.26.3-.5v-.57z"/><path d="M24.37 9.91v-.95l-.73.58-.22.17v-.99l.22-.18.73-.59V7l-.73.59-.74.59v2.91l.74-.59.73-.59h0zM20.86 7v.95l.47.39v1.04l-.18-.15v.96l.44.36.45.36v-.95l-.19-.15V8.76l.48.38v-.96l-.74-.59-.73-.59h0zM19 9.24v2.66l2.59 2.04.31.24-.31.32-.38.37L19 13.14v2.67l.71.54-.71.69v2.67l2.59 2.03.74.58v-2.66l-.74-.59-2.16-1.69.7-.69 1.46 1.15.74.58v-2.67l-.7-.55.7-.68v-2.66l-.74-.59L19 9.24h0z"/></g><g fill="#231f20"><path d="M30.45 10.54l-.38 1.37h3.36l-3.68 6.03v1.31h5.15l.53-1.31h-3.68l3.69-6.05v-1.35h-4.99 0zm6.32 1.87c.34 0 .65-.21.78-.53.14-.32.06-.68-.18-.93a.86.86 0 0 0-.93-.18.84.84 0 0 0-.52.79c0 .11.02.22.06.32.04.11.11.2.19.28.07.08.17.14.27.18.1.05.22.07.33.07zm-.67.48h1.37v6.35H36.1v-6.35zm53.88 0H91v6.35h-1.02v-6.35zm-51.3 6.34v-6.31h1.13v.73l.21-.19c.07-.05.15-.11.23-.15.07-.05.16-.1.24-.13.09-.04.17-.07.26-.1.09-.02.17-.03.26-.04l.25-.02a2.11 2.11 0 0 1 .26.02l.26.04v1.22h-.9c-.36 0-1.02.49-1.02.96v3.99l-1.18-.02z"/><path d="M45.08 19.21v-.3h-.24c-.09.07-.19.13-.3.19-.11.05-.22.09-.33.13s-.23.06-.34.08c-.12.02-.24.02-.36.02-.78 0-2.04-.26-2.04-1.69a2.18 2.18 0 0 1 .07-.72c.07-.24.18-.46.32-.66a2.09 2.09 0 0 1 .53-.5c.2-.14.43-.24.67-.29l.47-.1.48-.07c.16-.02.32-.03.48-.03.16-.01.32-.01.49 0v-.61a.75.75 0 0 0-.09-.3c-.04-.1-.11-.18-.19-.25a.72.72 0 0 0-.27-.15c-.1-.04-.2-.05-.31-.04l-.42.04-.42.06-.42.09c-.14.03-.28.07-.41.11l.31-1.28.42-.09.43-.06.42-.05.43-.02c.83 0 1.94.47 1.94 2.17v4.38l-1.32-.06zm-.14-2.93H43.9c-.14.01-.28.04-.42.1-.13.06-.25.15-.35.25-.1.11-.18.23-.23.37-.06.13-.09.28-.09.42a1.18 1.18 0 0 0 .09.37c.06.11.13.22.23.3a.96.96 0 0 0 .33.18.94.94 0 0 0 .37.04c.76 0 1.11-.42 1.11-.67v-1.36zm5.5 2.93v-.3h-.24c-.1.07-.2.13-.31.19-.1.05-.21.09-.32.13-.12.04-.23.06-.35.08s-.23.02-.35.02c-.79 0-2.05-.26-2.05-1.69-.01-.24.01-.49.08-.73a2.19 2.19 0 0 1 .32-.65c.15-.2.33-.37.54-.51.21-.13.43-.23.67-.28l.48-.1.48-.07c.16-.02.32-.03.48-.03.16-.01.32-.01.48 0v-.61c-.01-.11-.04-.21-.08-.3a.79.79 0 0 0-.19-.25.72.72 0 0 0-.27-.15c-.1-.04-.21-.05-.31-.04l-.43.04-.42.06-.41.09-.42.11.32-1.28.42-.09.42-.06.43-.05.43-.02c.83 0 1.93.47 1.93 2.17v4.38l-1.33-.06zm-.12-2.93h-1.04c-.15.01-.29.04-.42.1s-.25.15-.35.25a1.31 1.31 0 0 0-.24.37c-.05.13-.08.28-.08.42a.81.81 0 0 0 .09.37.93.93 0 0 0 .22.3 1.06 1.06 0 0 0 .33.18c.12.04.25.05.38.04.75 0 1.11-.42 1.11-.67v-1.36z" fill-rule="evenodd"/><path d="M52.88 11.24h1.33v1.7h1.51l-.35.98h-1.15v3.64c0 .47.08.74.53.74h.79v.93h-1.4c-.17 0-.34-.02-.5-.08s-.3-.15-.43-.26a1.22 1.22 0 0 1-.29-.41c-.07-.15-.11-.32-.12-.48v-4.11h-.66v-.97h.66l.08-1.68z"/><path d="M63.19 12.56a3.19 3.19 0 0 1-.12.6 2.73 2.73 0 0 1-.25.55c-.1.18-.22.34-.36.49s-.29.29-.46.4c.23.08.44.18.64.32.19.14.36.31.5.51a2.08 2.08 0 0 1 .32.63 2.33 2.33 0 0 1 .11.7 2.39 2.39 0 0 1-.14.84 2.28 2.28 0 0 1-.41.75c-.18.22-.4.41-.65.56a2.28 2.28 0 0 1-.8.3h-3.71v-8.64h2.73c1.32 0 2.61.76 2.61 1.99m-4.22 5.68h1.93c.19.02.39.01.58-.05a1.4 1.4 0 0 0 .52-.29c.15-.12.28-.28.36-.46.09-.18.14-.38.15-.58a1.44 1.44 0 0 0-.06-.58c-.06-.19-.15-.37-.28-.52-.13-.16-.28-.28-.46-.38a1.62 1.62 0 0 0-.57-.16h-2.17v3.02zM62 12.35c-.08-.17-.19-.32-.33-.45-.13-.12-.29-.22-.47-.28a1.41 1.41 0 0 0-.54-.07h-1.65v2.66h1.78c.17 0 .34-.03.51-.1a1.55 1.55 0 0 0 .43-.29c.12-.12.22-.27.29-.43.06-.16.1-.34.1-.51-.01-.18-.05-.37-.12-.53zm5.65 6.99v-.49a2.37 2.37 0 0 1-.35.19c-.13.06-.25.11-.38.15l-.39.1c-.14.03-.27.04-.41.05-.8 0-2.22-.32-2.22-1.87-.01-.29.04-.59.14-.86.11-.27.27-.52.48-.73.21-.2.46-.37.73-.47.27-.11.57-.15.86-.14h1.46v-.84c0-.42-.5-.96-1.43-.78a4.96 4.96 0 0 0-.41.08l-.4.12-.39.15-.37.18.11-.96.48-.19.49-.14c.17-.04.34-.07.51-.09.17-.03.34-.04.51-.05a1.81 1.81 0 0 1 .73.12 1.88 1.88 0 0 1 .63.4 1.85 1.85 0 0 1 .42.61c.1.23.15.47.15.72v4.77l-.95-.03zm-.09-3.39h-1.04a1.35 1.35 0 0 0-.6.04c-.2.05-.38.15-.54.28a1.44 1.44 0 0 0-.37.48 1.38 1.38 0 0 0-.14.59c0 .56.03 1.29 1.19 1.29.21 0 .42-.04.62-.12.19-.08.37-.21.51-.36.14-.16.25-.34.31-.55.07-.2.09-.41.06-.62v-1.03zm15.82 3.39v-.49a2.37 2.37 0 0 1-.35.19 2.5 2.5 0 0 1-.38.15c-.12.04-.26.08-.39.1-.13.03-.26.04-.4.05-.8 0-2.22-.32-2.22-1.87a2.13 2.13 0 0 1 .14-.86c.11-.27.27-.52.48-.72.2-.21.45-.37.72-.48a2.13 2.13 0 0 1 .86-.14h1.46v-.84c0-.42-.5-.96-1.43-.78-.14.02-.27.05-.41.08l-.39.12-.39.15-.38.18.11-.96.48-.19.5-.14c.16-.04.33-.07.5-.09.17-.03.34-.04.52-.05.24-.01.49.03.73.12a1.94 1.94 0 0 1 .62.4 1.85 1.85 0 0 1 .42.61c.1.23.15.47.15.72v4.77l-.95-.03zm-.09-3.39h-1.04c-.21-.03-.41-.02-.61.04-.19.05-.38.15-.53.28a1.55 1.55 0 0 0-.37.48c-.09.19-.13.39-.14.59 0 .56.04 1.29 1.19 1.29.21.01.42-.03.62-.12.19-.08.37-.2.51-.36s.25-.34.31-.55c.07-.2.09-.41.06-.62v-1.03z" fill-rule="evenodd"/><path d="M69.24 19.27h1.09v-4.35c0-.4.73-1.02 1.57-1.02.83 0 .85.54.85.85v4.52h1.14v-4.92c-.03-.22-.1-.43-.2-.63a1.81 1.81 0 0 0-.4-.51 1.82 1.82 0 0 0-.56-.35 1.75 1.75 0 0 0-.64-.14c-.17 0-.34.02-.51.05-.17.04-.33.09-.49.16a2.51 2.51 0 0 0-.45.26 2.44 2.44 0 0 0-.37.35v-.84l-1.03.21v6.36zm5.36-8.69h1.21v4.66h.24l2.09-2.65h1.54l-2.72 2.98 3 3.62H78.3l-2.25-3.3h-.26v3.36h-1.2l.01-8.67h0zm14.18 3.44l.23-.76-.43-.19-.45-.14a3.4 3.4 0 0 0-.46-.09 3.71 3.71 0 0 0-.47-.03c-.24-.02-.48.01-.72.08-.23.08-.44.2-.63.35a2.1 2.1 0 0 0-.45.57 1.87 1.87 0 0 0-.19.69c0 1.07.66 1.73 1.8 2s1.33.62 1.33.95-.33.93-1.33.93c-.15 0-.3-.01-.45-.04-.15-.02-.29-.05-.44-.09l-.42-.16a2.93 2.93 0 0 1-.39-.21l-.32.85a3.22 3.22 0 0 0 .5.23l.54.18.55.1c.18.03.37.04.56.04.27 0 .54-.05.79-.14.26-.1.49-.25.7-.43a2.27 2.27 0 0 0 .49-.65c.12-.24.19-.5.22-.78 0-.93-1.01-1.58-1.87-1.75-.86-.18-1.23-.53-1.23-1.06s.62-.77 1.18-.77l.34.04c.12.01.23.03.34.06l.33.09.32.12"/></g></svg>